<?xml version="1.0" encoding="utf-8"?>
<!-- Generator: Adobe Illustrator 27.0.0, SVG Export Plug-In . SVG Version: 6.00 Build 0)  -->
<svg version="1.1" xmlns="http://www.w3.org/2000/svg" xmlns:xlink="http://www.w3.org/1999/xlink" x="0px" y="0px"
	 viewBox="0 0 500 500" style="enable-background:new 0 0 500 500;" xml:space="preserve">
<style type="text/css">
	.st0{opacity:0.8;fill:url(#SVGID_1_);}
	.st1{fill:url(#SVGID_00000174560243572101422990000014192377639055727026_);}
	.st2{fill:#FFFFFF;}
	.st3{opacity:0.8;fill:url(#SVGID_00000160911253462924847710000017140344122721320882_);}
	.st4{fill:url(#SVGID_00000016753481523193459600000014403996444074085817_);}
	.st5{opacity:0.8;fill:url(#SVGID_00000001633374910747268770000002103463851359186304_);}
	.st6{fill:url(#SVGID_00000055696277955496375960000000758729672051370421_);}
	.st7{fill-rule:evenodd;clip-rule:evenodd;fill:#FFFFFF;}
	.st8{opacity:0.8;fill:url(#SVGID_00000112626663800828741150000013859456917782169750_);}
	.st9{fill:url(#SVGID_00000115488006347973966230000007965929037956947117_);}
	.st10{opacity:0.8;fill:url(#SVGID_00000049196715457065271120000014855468946074011034_);}
	.st11{fill:url(#SVGID_00000156568275719974639050000010572684460975318432_);}
	.st12{opacity:0.8;fill:url(#SVGID_00000026127221048051186120000016564341735078407349_);}
	.st13{fill:url(#SVGID_00000021094219168544651700000010875002122359563917_);}
	.st14{opacity:0.8;fill:url(#SVGID_00000088090953174326975660000012477742651977573051_);}
	.st15{fill:url(#SVGID_00000016797138661970825690000002360891594868822918_);}
	.st16{opacity:0.8;fill:url(#SVGID_00000091730675236304457920000015858461498008844220_);}
	.st17{fill:url(#SVGID_00000147180229939144003740000012042332352168090551_);}
	.st18{opacity:0.8;fill:url(#SVGID_00000182504789204517938320000006661631570688962946_);}
	.st19{fill:url(#SVGID_00000041997775078785109850000017024382652960012973_);}
	.st20{fill:url(#SVGID_00000008864370935719602590000013096629614893607831_);}
	.st21{fill:url(#SVGID_00000181088181595524530520000017135180013204873613_);}
	.st22{opacity:0.8;fill:url(#SVGID_00000086680054001723338740000005179448771586238639_);}
	.st23{fill:url(#SVGID_00000092457887104351674800000011138762622179715735_);}
	.st24{fill-rule:evenodd;clip-rule:evenodd;fill:#FF1753;}
	.st25{fill-rule:evenodd;clip-rule:evenodd;fill:#00C9D0;}
	.st26{opacity:0.8;fill:url(#SVGID_00000008139048790326102660000010385114946332797592_);}
	.st27{fill:url(#SVGID_00000005978441001857767390000015818757566543197102_);}
	.st28{opacity:0.8;fill:url(#SVGID_00000155836886403800524500000006117087104722145679_);}
	.st29{fill:url(#SVGID_00000044858908547939192270000013207609121367778946_);}
	.st30{opacity:0.8;fill:url(#SVGID_00000181046079487940624920000017698207533405767587_);}
	.st31{fill:url(#SVGID_00000176027227544138152710000014531864660610237084_);}
	.st32{opacity:0.8;fill:url(#SVGID_00000026142907219597098000000004925276960533955774_);}
	.st33{opacity:0.8;fill:url(#SVGID_00000024001513437837588860000006522943194491922829_);}
	.st34{opacity:0.8;fill:url(#SVGID_00000073707576536099915290000009464053775109404050_);}
	.st35{opacity:0.8;fill:url(#SVGID_00000088832650522202928490000009105264696989491335_);}
	.st36{opacity:0.8;fill:url(#SVGID_00000087386165493854787650000011007168216367694755_);}
	.st37{opacity:0.8;fill:url(#SVGID_00000165220331091562567230000003880238947867154580_);}
	.st38{opacity:0.8;fill:url(#SVGID_00000165206864829221067260000012727716703234382265_);}
	.st39{opacity:0.8;fill:url(#SVGID_00000028320828239924888530000015450573100051969183_);}
	.st40{opacity:0.8;fill:url(#SVGID_00000035512426597278900930000005422078838216369041_);}
	.st41{opacity:0.8;fill:url(#SVGID_00000132787663847448629210000004448027267670058634_);}
	.st42{opacity:0.8;fill:url(#SVGID_00000109003785036760832420000004089621847761798563_);}
	.st43{opacity:0.8;fill:url(#SVGID_00000123421484978594176390000005162800186318487688_);}
	.st44{opacity:0.8;fill:url(#SVGID_00000169534737356342474100000000459088667078397072_);}
	.st45{opacity:0.8;fill:url(#SVGID_00000051342121361411367070000002840722543059382940_);}
	.st46{opacity:0.8;fill:url(#SVGID_00000062156764924378386820000006038315052817585313_);}
</style>
<g id="BACKGROUND">
</g>
<g id="ELEMENTS">
	<g>
		<radialGradient id="SVGID_1_" cx="575.5837" cy="229.0897" r="29.6844" gradientUnits="userSpaceOnUse">
			<stop  offset="0" style="stop-color:#000057"/>
			<stop  offset="0.2482" style="stop-color:#4C4C89;stop-opacity:0.7518"/>
			<stop  offset="0.5193" style="stop-color:#9898BB;stop-opacity:0.4807"/>
			<stop  offset="0.744" style="stop-color:#D0D0E0;stop-opacity:0.256"/>
			<stop  offset="0.9103" style="stop-color:#F2F2F6;stop-opacity:0.0897"/>
			<stop  offset="1" style="stop-color:#FFFFFF;stop-opacity:0"/>
		</radialGradient>
		<circle class="st0" cx="575.58" cy="229.09" r="29.68"/>
		<g>
			
				<linearGradient id="SVGID_00000146494882121277660670000013321169693147648144_" gradientUnits="userSpaceOnUse" x1="550.6028" y1="201.2139" x2="584.3057" y2="234.9167">
				<stop  offset="0" style="stop-color:#007BB8"/>
				<stop  offset="1" style="stop-color:#0044E9"/>
			</linearGradient>
			<circle style="fill:url(#SVGID_00000146494882121277660670000013321169693147648144_);" cx="567.45" cy="218.07" r="23.83"/>
			<g>
				<path class="st2" d="M557.91,212.48h4.1v13.16h-4.1V212.48z M559.96,205.94c1.31,0,2.37,1.06,2.37,2.37
					c0,1.31-1.06,2.37-2.37,2.37c-1.31,0-2.38-1.06-2.38-2.37C557.58,207.01,558.64,205.94,559.96,205.94"/>
				<path class="st2" d="M564.57,212.48h3.92v1.8h0.05c0.55-1.04,1.88-2.13,3.87-2.13c4.14,0,4.91,2.72,4.91,6.27v7.22h-4.09v-6.4
					c0-1.53-0.03-3.49-2.13-3.49c-2.13,0-2.45,1.66-2.45,3.38v6.51h-4.09V212.48z"/>
			</g>
		</g>
	</g>
	<g>
		
			<radialGradient id="SVGID_00000139973491887423006540000001821396887860578193_" cx="668.1555" cy="229.0897" r="29.6844" gradientUnits="userSpaceOnUse">
			<stop  offset="0" style="stop-color:#000057"/>
			<stop  offset="0.2482" style="stop-color:#4C4C89;stop-opacity:0.7518"/>
			<stop  offset="0.5193" style="stop-color:#9898BB;stop-opacity:0.4807"/>
			<stop  offset="0.744" style="stop-color:#D0D0E0;stop-opacity:0.256"/>
			<stop  offset="0.9103" style="stop-color:#F2F2F6;stop-opacity:0.0897"/>
			<stop  offset="1" style="stop-color:#FFFFFF;stop-opacity:0"/>
		</radialGradient>
		
			<circle style="opacity:0.8;fill:url(#SVGID_00000139973491887423006540000001821396887860578193_);" cx="668.16" cy="229.09" r="29.68"/>
		<g>
			
				<linearGradient id="SVGID_00000113348629237301561110000015292139210177140125_" gradientUnits="userSpaceOnUse" x1="643.2524" y1="201.2139" x2="676.9551" y2="234.9167">
				<stop  offset="0" style="stop-color:#FF679A"/>
				<stop  offset="0.7919" style="stop-color:#E72096"/>
				<stop  offset="1" style="stop-color:#E00D95"/>
			</linearGradient>
			<circle style="fill:url(#SVGID_00000113348629237301561110000015292139210177140125_);" cx="660.1" cy="218.07" r="23.83"/>
			<path class="st2" d="M660.1,206.18c-6.56,0-11.9,5.33-11.9,11.89s5.34,11.88,11.9,11.88c6.56,0,11.9-5.33,11.9-11.88
				C672,211.51,666.67,206.18,660.1,206.18L660.1,206.18z M667.93,211.79c1.36,1.68,2.18,3.81,2.22,6.12
				c-0.45-0.09-2.36-0.45-4.65-0.45c-0.74,0-1.51,0.04-2.29,0.13c-0.07-0.16-0.13-0.32-0.2-0.48c-0.2-0.47-0.42-0.95-0.64-1.41
				C665.88,214.26,667.58,212.25,667.93,211.79L667.93,211.79z M660.1,208.04c2.54,0,4.85,0.94,6.62,2.49
				c-0.28,0.38-1.8,2.28-5.19,3.56c-1.57-2.87-3.29-5.25-3.7-5.8C658.57,208.13,659.32,208.04,660.1,208.04L660.1,208.04z
				 M655.78,209.01c0.35,0.48,2.07,2.88,3.68,5.73c-4.32,1.14-8.16,1.21-9.09,1.21h-0.1C650.94,212.88,653.02,210.34,655.78,209.01
				L655.78,209.01z M650.05,218.08c0-0.08,0-0.17,0-0.25c0.06,0,0.15,0,0.26,0c1.25,0,5.58-0.1,10.04-1.43
				c0.27,0.53,0.53,1.07,0.77,1.6c-0.11,0.03-0.22,0.06-0.33,0.1c-5.02,1.62-7.79,5.92-8.21,6.62
				C651.01,222.96,650.05,220.63,650.05,218.08L650.05,218.08z M660.1,228.12c-2.31,0-4.43-0.78-6.13-2.09
				c0.29-0.56,2.37-4.32,7.88-6.23c0,0,0.01,0,0.01,0c1.38,3.59,1.97,6.61,2.13,7.55C662.79,227.84,661.48,228.12,660.1,228.12
				L660.1,228.12z M665.8,226.35c-0.13-0.77-0.68-3.6-1.93-7.05c0.7-0.11,1.38-0.15,2.02-0.15c2.1,0,3.74,0.46,4.13,0.58
				C669.57,222.46,668,224.83,665.8,226.35L665.8,226.35z"/>
		</g>
	</g>
	<g>
		
			<radialGradient id="SVGID_00000133494488007550052490000014904735073936494774_" cx="760.7274" cy="229.0897" r="29.6844" gradientUnits="userSpaceOnUse">
			<stop  offset="0" style="stop-color:#000057"/>
			<stop  offset="0.2482" style="stop-color:#4C4C89;stop-opacity:0.7518"/>
			<stop  offset="0.5193" style="stop-color:#9898BB;stop-opacity:0.4807"/>
			<stop  offset="0.744" style="stop-color:#D0D0E0;stop-opacity:0.256"/>
			<stop  offset="0.9103" style="stop-color:#F2F2F6;stop-opacity:0.0897"/>
			<stop  offset="1" style="stop-color:#FFFFFF;stop-opacity:0"/>
		</radialGradient>
		
			<circle style="opacity:0.8;fill:url(#SVGID_00000133494488007550052490000014904735073936494774_);" cx="760.73" cy="229.09" r="29.68"/>
		<g>
			
				<linearGradient id="SVGID_00000047757480437430072520000003296155367526745988_" gradientUnits="userSpaceOnUse" x1="735.9019" y1="201.2139" x2="769.6047" y2="234.9167">
				<stop  offset="0" style="stop-color:#FF4C3C"/>
				<stop  offset="0.9565" style="stop-color:#EF053E"/>
				<stop  offset="1" style="stop-color:#EE023E"/>
			</linearGradient>
			<circle style="fill:url(#SVGID_00000047757480437430072520000003296155367526745988_);" cx="752.75" cy="218.07" r="23.83"/>
			<path class="st7" d="M751.13,222.52c-0.02,0.07-0.04,0.14-0.06,0.2c-0.94,3.69-1.05,4.52-2.02,6.23
				c-0.46,0.82-0.98,1.59-1.56,2.33c-0.07,0.08-0.13,0.19-0.26,0.17c-0.14-0.03-0.15-0.16-0.17-0.27c-0.16-1.12-0.24-2.25-0.2-3.38
				c0.05-1.48,0.23-1.98,2.13-9.99c0.03-0.12,0-0.22-0.04-0.33c-0.46-1.23-0.55-2.48-0.15-3.74c0.86-2.73,3.96-2.94,4.5-0.69
				c0.33,1.39-0.55,3.22-1.23,5.91c-0.56,2.22,2.06,3.8,4.29,2.18c2.06-1.5,2.86-5.08,2.71-7.63c-0.3-5.07-5.86-6.16-9.39-4.53
				c-4.04,1.87-4.96,6.88-3.14,9.17c0.23,0.29,0.41,0.47,0.33,0.76c-0.12,0.46-0.22,0.92-0.35,1.38c-0.09,0.34-0.38,0.46-0.72,0.32
				c-0.67-0.27-1.23-0.7-1.69-1.26c-1.55-1.92-1.99-5.72,0.06-8.93c2.27-3.56,6.49-5,10.35-4.56c4.61,0.52,7.52,3.67,8.06,7.24
				c0.25,1.63,0.07,5.64-2.21,8.47c-2.63,3.26-6.88,3.47-8.85,1.47C751.4,222.88,751.27,222.7,751.13,222.52z"/>
		</g>
	</g>
	<g>
		
			<radialGradient id="SVGID_00000075879030513471543500000012119828140376681150_" cx="760.7274" cy="163.5332" r="29.6844" gradientUnits="userSpaceOnUse">
			<stop  offset="0" style="stop-color:#000057"/>
			<stop  offset="0.2482" style="stop-color:#4C4C89;stop-opacity:0.7518"/>
			<stop  offset="0.5193" style="stop-color:#9898BB;stop-opacity:0.4807"/>
			<stop  offset="0.744" style="stop-color:#D0D0E0;stop-opacity:0.256"/>
			<stop  offset="0.9103" style="stop-color:#F2F2F6;stop-opacity:0.0897"/>
			<stop  offset="1" style="stop-color:#FFFFFF;stop-opacity:0"/>
		</radialGradient>
		
			<circle style="opacity:0.8;fill:url(#SVGID_00000075879030513471543500000012119828140376681150_);" cx="760.73" cy="163.53" r="29.68"/>
		<g>
			
				<linearGradient id="SVGID_00000123412453248773769200000003727242616119301566_" gradientUnits="userSpaceOnUse" x1="735.9019" y1="134.4649" x2="769.6047" y2="168.1677">
				<stop  offset="0" style="stop-color:#00FB73"/>
				<stop  offset="1" style="stop-color:#00B25B"/>
			</linearGradient>
			<circle style="fill:url(#SVGID_00000123412453248773769200000003727242616119301566_);" cx="752.75" cy="151.32" r="23.83"/>
			<g>
				<path class="st2" d="M740.48,163.62l1.76-6.58c-1-1.8-1.52-3.82-1.52-5.87c0-6.7,5.45-12.15,12.15-12.15
					c6.7,0,12.15,5.45,12.15,12.15c0,6.7-5.45,12.15-12.15,12.15c-2.01,0-4-0.51-5.78-1.47L740.48,163.62z M747.43,159.38l0.42,0.25
					c1.53,0.91,3.27,1.39,5.03,1.39c5.43,0,9.85-4.42,9.85-9.85c0-5.43-4.42-9.85-9.85-9.85c-5.43,0-9.85,4.42-9.85,9.85
					c0,1.79,0.5,3.56,1.44,5.11l0.26,0.42l-0.98,3.67L747.43,159.38z"/>
				<path class="st7" d="M757.39,152.86c-0.5-0.3-1.15-0.63-1.74-0.39c-0.45,0.18-0.74,0.89-1.03,1.25
					c-0.15,0.19-0.33,0.21-0.56,0.12c-1.7-0.68-3-1.81-3.93-3.37c-0.16-0.24-0.13-0.43,0.06-0.66c0.28-0.33,0.64-0.71,0.71-1.16
					c0.08-0.45-0.13-0.97-0.32-1.37c-0.24-0.51-0.5-1.24-1.01-1.53c-0.47-0.27-1.09-0.12-1.51,0.22c-0.72,0.59-1.07,1.51-1.06,2.43
					c0,0.26,0.03,0.52,0.1,0.77c0.15,0.6,0.42,1.17,0.74,1.7c0.24,0.4,0.49,0.8,0.77,1.17c0.91,1.23,2.04,2.3,3.34,3.11
					c0.65,0.4,1.36,0.75,2.09,0.99c0.82,0.27,1.55,0.55,2.43,0.38c0.92-0.18,1.83-0.75,2.2-1.64c0.11-0.26,0.16-0.56,0.1-0.84
					C758.64,153.48,757.86,153.13,757.39,152.86z"/>
			</g>
		</g>
	</g>
	<g>
		
			<radialGradient id="SVGID_00000142143305129700873760000012337788524701014680_" cx="575.5837" cy="163.5332" r="29.6844" gradientUnits="userSpaceOnUse">
			<stop  offset="0" style="stop-color:#000057"/>
			<stop  offset="0.2482" style="stop-color:#4C4C89;stop-opacity:0.7518"/>
			<stop  offset="0.5193" style="stop-color:#9898BB;stop-opacity:0.4807"/>
			<stop  offset="0.744" style="stop-color:#D0D0E0;stop-opacity:0.256"/>
			<stop  offset="0.9103" style="stop-color:#F2F2F6;stop-opacity:0.0897"/>
			<stop  offset="1" style="stop-color:#FFFFFF;stop-opacity:0"/>
		</radialGradient>
		
			<circle style="opacity:0.8;fill:url(#SVGID_00000142143305129700873760000012337788524701014680_);" cx="575.58" cy="163.53" r="29.68"/>
		<g>
			
				<linearGradient id="SVGID_00000047755408082984366490000001803408782626551463_" gradientUnits="userSpaceOnUse" x1="550.6028" y1="134.4649" x2="584.3057" y2="168.1677">
				<stop  offset="0" style="stop-color:#FFFA00"/>
				<stop  offset="1" style="stop-color:#FFBB36"/>
			</linearGradient>
			<circle style="fill:url(#SVGID_00000047755408082984366490000001803408782626551463_);" cx="567.45" cy="151.32" r="23.83"/>
			<path class="st2" d="M567.46,164.21c-1.05,0-2.11-0.3-3.13-0.9c-0.41-0.24-0.8-0.5-1.2-0.77l-0.45-0.3
				c-0.34-0.22-0.72-0.36-1.18-0.43c-0.17-0.03-0.34-0.04-0.5-0.04c-0.4,0-0.8,0.06-1.2,0.11l-0.63,0.08l-0.2,0.01
				c-0.78,0-1.33-0.47-1.36-1.16c-0.03-0.47-0.12-0.67-0.98-0.77c-0.52-0.06-1-0.26-1.39-0.42c-0.67-0.28-1.12-0.68-1.37-1.22
				l-0.06-0.13v-0.8l0.16-0.19c0.22-0.26,0.52-0.54,0.99-0.63c1.72-0.34,3.05-1.37,4.18-3.25c0.43-0.71,0.46-0.92,0.45-0.98
				c-0.02-0.03-0.19-0.17-1.01-0.47c-0.16-0.05-0.24-0.08-0.32-0.11c-0.4-0.16-0.82-0.35-1.2-0.68c-0.51-0.44-0.71-1.03-0.57-1.63
				c0.16-0.65,0.7-1.16,1.43-1.33c0.15-0.04,0.3-0.05,0.45-0.05c0.4,0,0.76,0.12,1.07,0.23c0.1,0.03,0.2,0.07,0.29,0.09
				c-0.09-1-0.1-2.03-0.05-3.28c0.11-2.36,1.26-4.26,3.33-5.49c1.44-0.86,2.93-1.29,4.43-1.29c1.48,0,2.96,0.42,4.38,1.26
				c1.92,1.13,3.07,2.84,3.32,4.97c0.15,1.3,0.1,2.59,0.01,3.79c0.07-0.02,0.15-0.05,0.22-0.07c0.33-0.1,0.7-0.22,1.11-0.22
				c0.3,0,0.59,0.06,0.87,0.18c0.69,0.3,1.13,0.93,1.11,1.59c-0.01,0.45-0.24,0.9-0.63,1.24c-0.39,0.34-0.85,0.52-1.25,0.69
				l-0.49,0.19c-0.18,0.06-0.35,0.13-0.52,0.21c-0.21,0.1-0.26,0.17-0.27,0.17c0,0,0,0.07,0.07,0.23c1.07,2.25,2.49,3.52,4.48,3.99
				c0.48,0.11,0.84,0.33,1.1,0.68l0.13,0.18v0.79l-0.07,0.14c-0.27,0.57-0.76,0.97-1.48,1.24c-0.59,0.23-1.09,0.42-1.65,0.46
				c-0.4,0.03-0.5,0.11-0.55,0.5c-0.09,0.62-0.33,1.33-1.4,1.33c-0.1,0-0.22-0.01-0.35-0.02c-0.17-0.01-0.35-0.04-0.53-0.08
				c-0.38-0.07-0.72-0.1-1.05-0.1c-0.88,0-1.62,0.25-2.27,0.77c-0.21,0.17-0.44,0.31-0.66,0.46
				C569.83,163.83,568.64,164.21,567.46,164.21z"/>
			<path d="M567.45,139.1c1.35,0,2.71,0.39,4.04,1.17c1.67,0.98,2.75,2.47,2.99,4.46c0.15,1.3,0.09,2.6-0.01,3.89
				c-0.03,0.42,0.02,0.59,0.29,0.59c0.09,0,0.2-0.02,0.34-0.05c0.49-0.12,0.93-0.33,1.4-0.33c0.19,0,0.39,0.04,0.59,0.13
				c0.38,0.17,0.72,0.53,0.71,0.95c-0.01,0.29-0.17,0.55-0.39,0.74c-0.33,0.29-0.77,0.45-1.17,0.61c-0.31,0.13-0.64,0.22-0.94,0.37
				c-0.63,0.29-0.81,0.68-0.52,1.31c1.02,2.15,2.52,3.79,4.94,4.36c0.3,0.07,0.53,0.19,0.71,0.43c0,0.14,0,0.27,0,0.41
				c-0.23,0.47-0.64,0.73-1.11,0.91c-0.47,0.18-0.95,0.38-1.46,0.41c-0.7,0.04-1.07,0.35-1.18,1.08c-0.09,0.59-0.25,0.75-0.73,0.75
				c-0.09,0-0.18-0.01-0.29-0.01c-0.17-0.01-0.33-0.04-0.5-0.07c-0.39-0.07-0.77-0.11-1.14-0.11c-0.96,0-1.87,0.26-2.69,0.92
				c-0.22,0.18-0.47,0.33-0.71,0.49c-1.04,0.68-2.1,1.03-3.17,1.03c-0.92,0-1.85-0.26-2.79-0.81c-0.55-0.32-1.08-0.7-1.62-1.05
				c-0.44-0.29-0.92-0.45-1.46-0.53c-0.2-0.03-0.4-0.04-0.6-0.04c-0.63,0-1.25,0.13-1.87,0.19c-0.06,0.01-0.11,0.01-0.16,0.01
				c-0.36,0-0.67-0.14-0.69-0.52c-0.06-1.05-0.7-1.31-1.58-1.4c-0.41-0.05-0.82-0.21-1.2-0.37c-0.42-0.18-0.81-0.43-1.01-0.87
				c0-0.14,0-0.27,0-0.41c0.17-0.19,0.34-0.36,0.61-0.41c2.13-0.42,3.55-1.78,4.63-3.56c0.9-1.5,0.76-1.84-0.91-2.43
				c-0.1-0.03-0.19-0.06-0.29-0.1c-0.36-0.15-0.72-0.31-1.01-0.56c-0.75-0.65-0.3-1.58,0.57-1.79c0.1-0.02,0.2-0.03,0.29-0.03
				c0.52,0,1,0.31,1.53,0.37c0.05,0.01,0.1,0.01,0.15,0.01c0.31,0,0.43-0.16,0.38-0.54c-0.13-1.14-0.13-2.29-0.07-3.44
				c0.1-2.19,1.18-3.86,3-4.94C564.71,139.5,566.08,139.1,567.45,139.1 M567.45,137.75c-1.62,0-3.23,0.47-4.78,1.38
				c-2.28,1.35-3.54,3.44-3.66,6.04c-0.04,0.88-0.05,1.66-0.02,2.38c-0.19-0.04-0.4-0.07-0.62-0.07c-0.21,0-0.41,0.02-0.61,0.07
				c-0.97,0.23-1.71,0.93-1.93,1.83c-0.2,0.84,0.09,1.7,0.78,2.3c0.45,0.39,0.95,0.62,1.39,0.79c0.09,0.04,0.18,0.07,0.27,0.1
				c0.19,0.07,0.34,0.12,0.46,0.17c-0.05,0.09-0.11,0.19-0.18,0.31c-1.02,1.7-2.21,2.63-3.73,2.93c-0.77,0.15-1.21,0.66-1.37,0.85
				l-0.33,0.38v0.5v0.41v0.29l0.12,0.27c0.32,0.7,0.88,1.22,1.72,1.57c0.43,0.18,0.97,0.4,1.58,0.47c0.19,0.02,0.31,0.05,0.37,0.06
				c0,0.02,0,0.04,0.01,0.07c0.06,1.06,0.9,1.8,2.04,1.8c0.1,0,0.21-0.01,0.31-0.02c0.21-0.02,0.42-0.05,0.62-0.08
				c0.39-0.05,0.76-0.11,1.1-0.11c0.13,0,0.26,0.01,0.4,0.03c0.37,0.06,0.66,0.16,0.92,0.33l0.47,0.31c0.4,0.27,0.79,0.53,1.2,0.77
				c1.13,0.66,2.3,1,3.47,1c1.32,0,2.63-0.42,3.91-1.25l0.13-0.08c0.24-0.15,0.48-0.31,0.7-0.49c0.53-0.43,1.11-0.62,1.84-0.62
				c0.28,0,0.58,0.03,0.9,0.09c0.23,0.04,0.43,0.07,0.63,0.09c0.15,0.01,0.28,0.02,0.4,0.02c0.81,0,1.81-0.32,2.06-1.84
				c0.64-0.05,1.17-0.26,1.65-0.44l0.14-0.05c0.89-0.34,1.49-0.85,1.84-1.58l0.14-0.28v-0.31v-0.41v-0.45l-0.27-0.36
				c-0.35-0.47-0.85-0.79-1.49-0.94c-1.66-0.39-2.89-1.43-3.84-3.25c0.05-0.02,0.1-0.04,0.15-0.05c0.14-0.05,0.28-0.1,0.41-0.16
				l0.09-0.04c0.44-0.18,0.98-0.39,1.46-0.81c0.53-0.46,0.84-1.09,0.86-1.73c0.02-0.94-0.57-1.81-1.52-2.23
				c-0.36-0.16-0.75-0.24-1.14-0.24c-0.21,0-0.41,0.02-0.6,0.06c0.05-0.98,0.05-1.96-0.07-2.97c-0.28-2.34-1.54-4.23-3.65-5.47
				C570.65,138.2,569.06,137.75,567.45,137.75L567.45,137.75z"/>
		</g>
	</g>
	<g>
		
			<radialGradient id="SVGID_00000053528251402250020390000010422588413749567361_" cx="668.1555" cy="163.5332" r="29.6844" gradientUnits="userSpaceOnUse">
			<stop  offset="0" style="stop-color:#000057"/>
			<stop  offset="0.2482" style="stop-color:#4C4C89;stop-opacity:0.7518"/>
			<stop  offset="0.5193" style="stop-color:#9898BB;stop-opacity:0.4807"/>
			<stop  offset="0.744" style="stop-color:#D0D0E0;stop-opacity:0.256"/>
			<stop  offset="0.9103" style="stop-color:#F2F2F6;stop-opacity:0.0897"/>
			<stop  offset="1" style="stop-color:#FFFFFF;stop-opacity:0"/>
		</radialGradient>
		
			<circle style="opacity:0.8;fill:url(#SVGID_00000053528251402250020390000010422588413749567361_);" cx="668.16" cy="163.53" r="29.68"/>
		<g>
			
				<linearGradient id="SVGID_00000089534764992267972460000015523006616870140329_" gradientUnits="userSpaceOnUse" x1="643.2524" y1="134.4649" x2="676.9551" y2="168.1677">
				<stop  offset="0" style="stop-color:#FF0000"/>
				<stop  offset="1" style="stop-color:#9B0000"/>
			</linearGradient>
			<circle style="fill:url(#SVGID_00000089534764992267972460000015523006616870140329_);" cx="660.1" cy="151.32" r="23.83"/>
			<path class="st2" d="M671.68,148.29c0-2.81-2.27-5.08-5.08-5.08h-12.99c-2.81,0-5.08,2.27-5.08,5.08v6.04
				c0,2.81,2.27,5.08,5.08,5.08h12.99c2.81,0,5.08-2.27,5.08-5.08V148.29z M664.04,151.77l-5.82,2.88c-0.23,0.12-1-0.04-1-0.3v-5.92
				c0-0.26,0.78-0.43,1.01-0.3l5.58,3.03C664.03,151.3,664.28,151.64,664.04,151.77z"/>
		</g>
	</g>
	<g>
		
			<radialGradient id="SVGID_00000094610187240570808690000017663960858201151373_" cx="853.2993" cy="163.5332" r="29.6844" gradientUnits="userSpaceOnUse">
			<stop  offset="0" style="stop-color:#000057"/>
			<stop  offset="0.2482" style="stop-color:#4C4C89;stop-opacity:0.7518"/>
			<stop  offset="0.5193" style="stop-color:#9898BB;stop-opacity:0.4807"/>
			<stop  offset="0.744" style="stop-color:#D0D0E0;stop-opacity:0.256"/>
			<stop  offset="0.9103" style="stop-color:#F2F2F6;stop-opacity:0.0897"/>
			<stop  offset="1" style="stop-color:#FFFFFF;stop-opacity:0"/>
		</radialGradient>
		
			<circle style="opacity:0.8;fill:url(#SVGID_00000094610187240570808690000017663960858201151373_);" cx="853.3" cy="163.53" r="29.68"/>
		<g>
			
				<linearGradient id="SVGID_00000002350730555642865140000004289980875619353767_" gradientUnits="userSpaceOnUse" x1="828.5513" y1="134.4649" x2="862.2542" y2="168.1677">
				<stop  offset="0" style="stop-color:#006EF8"/>
				<stop  offset="0.7752" style="stop-color:#212CB1"/>
				<stop  offset="1" style="stop-color:#2B189C"/>
			</linearGradient>
			<circle style="fill:url(#SVGID_00000002350730555642865140000004289980875619353767_);" cx="845.4" cy="151.32" r="23.83"/>
			<g>
				<path class="st2" d="M845.49,155.01c0,0.64-0.13,1.21-0.39,1.7c-0.26,0.49-0.61,0.89-1.06,1.22c-0.45,0.33-0.97,0.58-1.57,0.75
					c-0.59,0.17-1.23,0.26-1.9,0.26h-7.36v-15.24h8.16c0.53,0,1.01,0.11,1.44,0.34c0.43,0.23,0.79,0.53,1.09,0.89
					c0.3,0.37,0.53,0.78,0.7,1.25c0.16,0.47,0.25,0.93,0.25,1.41c0,0.74-0.19,1.44-0.56,2.09c-0.37,0.65-0.92,1.13-1.63,1.45
					c0.87,0.26,1.56,0.72,2.07,1.38C845.23,153.17,845.49,154.01,845.49,155.01z M836.17,146.23v3.84h3.95
					c0.5,0,0.93-0.17,1.28-0.52c0.35-0.34,0.53-0.82,0.53-1.42c0-0.59-0.16-1.05-0.48-1.4c-0.32-0.34-0.72-0.52-1.19-0.52H836.17z
					 M842.5,154.45c0-0.27-0.05-0.53-0.14-0.78c-0.09-0.25-0.22-0.47-0.38-0.65c-0.16-0.19-0.34-0.33-0.56-0.44
					c-0.21-0.11-0.45-0.16-0.71-0.16h-4.55v4.01h4.4c0.27,0,0.53-0.05,0.76-0.15c0.24-0.1,0.44-0.24,0.61-0.42
					c0.17-0.18,0.31-0.39,0.41-0.63C842.45,154.98,842.5,154.72,842.5,154.45z"/>
				<path class="st2" d="M851.9,158.94c-0.87,0-1.66-0.15-2.37-0.45c-1.4-0.6-2.39-1.6-2.96-3.01c-0.27-0.68-0.41-1.39-0.41-2.14
					c0-0.78,0.13-1.51,0.4-2.19c0.56-1.43,1.55-2.44,2.96-3.05c0.71-0.3,1.52-0.46,2.4-0.46c0.89,0,1.68,0.15,2.38,0.46
					c2.3,1,3.39,3.23,3.29,5.66c-0.01,0.17-0.02,0.31-0.05,0.42h-8.43c0.04,0.43,0.15,0.81,0.31,1.14c0.17,0.33,0.38,0.62,0.64,0.85
					c0.26,0.24,0.56,0.42,0.89,0.54c0.33,0.12,0.68,0.19,1.04,0.19c0.55,0,1.08-0.14,1.57-0.41c0.49-0.27,0.83-0.63,1.01-1.07
					l2.39,0.67c-0.4,0.83-1.04,1.52-1.92,2.05C854.17,158.67,853.12,158.94,851.9,158.94z M854.73,152.36
					c-0.07-0.82-0.37-1.47-0.91-1.97c-0.53-0.49-1.18-0.74-1.95-0.74c-0.37,0-0.72,0.07-1.05,0.2c-0.33,0.13-0.61,0.32-0.86,0.55
					c-0.25,0.24-0.45,0.52-0.61,0.85c-0.16,0.33-0.25,0.7-0.28,1.1L854.73,152.36L854.73,152.36z"/>
				<path class="st2" d="M848.24,144.42h7.29v1.81h-7.29V144.42z"/>
			</g>
		</g>
	</g>
	<g>
		
			<radialGradient id="SVGID_00000022521886230170358770000003042236741835879342_" cx="945.8712" cy="163.5332" r="29.6844" gradientUnits="userSpaceOnUse">
			<stop  offset="0" style="stop-color:#000057"/>
			<stop  offset="0.2482" style="stop-color:#4C4C89;stop-opacity:0.7518"/>
			<stop  offset="0.5193" style="stop-color:#9898BB;stop-opacity:0.4807"/>
			<stop  offset="0.744" style="stop-color:#D0D0E0;stop-opacity:0.256"/>
			<stop  offset="0.9103" style="stop-color:#F2F2F6;stop-opacity:0.0897"/>
			<stop  offset="1" style="stop-color:#FFFFFF;stop-opacity:0"/>
		</radialGradient>
		
			<circle style="opacity:0.8;fill:url(#SVGID_00000022521886230170358770000003042236741835879342_);" cx="945.87" cy="163.53" r="29.68"/>
		<g>
			
				<linearGradient id="SVGID_00000133503247905459282930000013558821951200186538_" gradientUnits="userSpaceOnUse" x1="921.2009" y1="134.4649" x2="954.9036" y2="168.1677">
				<stop  offset="0" style="stop-color:#23004A"/>
				<stop  offset="0.9565" style="stop-color:#020003"/>
				<stop  offset="1" style="stop-color:#000000"/>
			</linearGradient>
			<circle style="fill:url(#SVGID_00000133503247905459282930000013558821951200186538_);" cx="938.05" cy="151.32" r="23.83"/>
			<path class="st2" d="M943.6,150.28c0.11,0.05,0.21,0.1,0.32,0.14c1.49,0.72,2.59,1.8,3.16,3.14c0.8,1.87,0.88,4.9-1.55,7.32
				c-1.85,1.85-4.11,2.68-7.29,2.71h-0.02c-3.59-0.03-6.34-1.23-8.2-3.59c-1.65-2.1-2.5-5.02-2.53-8.67v-0.02v-0.01
				c0.03-3.66,0.87-6.57,2.53-8.67c1.86-2.36,4.62-3.56,8.21-3.59h0.02c3.59,0.03,6.39,1.23,8.3,3.57c0.94,1.16,1.64,2.56,2.08,4.18
				l-2.07,0.55c-0.36-1.32-0.91-2.44-1.65-3.34c-1.49-1.83-3.73-2.77-6.67-2.79c-2.91,0.03-5.12,0.96-6.55,2.78
				c-1.34,1.7-2.03,4.17-2.06,7.32c0.03,3.15,0.72,5.62,2.06,7.33c1.43,1.82,3.64,2.76,6.55,2.78c2.63-0.02,4.37-0.64,5.81-2.09
				c1.65-1.65,1.62-3.67,1.09-4.9c-0.31-0.73-0.87-1.33-1.63-1.78c-0.19,1.38-0.6,2.47-1.26,3.31c-0.87,1.11-2.12,1.72-3.72,1.8
				c-1.21,0.07-2.37-0.22-3.27-0.82c-1.06-0.71-1.69-1.78-1.75-3.03c-0.13-2.47,1.83-4.24,4.87-4.42c1.08-0.06,2.09-0.02,3.03,0.14
				c-0.12-0.76-0.37-1.36-0.75-1.8c-0.51-0.6-1.31-0.9-2.36-0.91h-0.04c-0.85,0-1.99,0.24-2.73,1.34l-1.76-1.21
				c0.98-1.49,2.57-2.31,4.49-2.31h0.04c3.2,0.02,5.11,2.02,5.3,5.51L943.6,150.28L943.6,150.28z M935.62,153.79
				c0.07,1.28,1.45,1.88,2.79,1.8c1.31-0.07,2.79-0.58,3.04-3.74c-0.67-0.15-1.42-0.22-2.22-0.22c-0.25,0-0.49,0.01-0.74,0.02
				C936.31,151.77,935.58,152.84,935.62,153.79L935.62,153.79L935.62,153.79z"/>
		</g>
	</g>
	<g>
		
			<radialGradient id="SVGID_00000053520237120229830030000005011316645086750106_" cx="853.2993" cy="229.0897" r="29.6844" gradientUnits="userSpaceOnUse">
			<stop  offset="0" style="stop-color:#000057"/>
			<stop  offset="0.2482" style="stop-color:#4C4C89;stop-opacity:0.7518"/>
			<stop  offset="0.5193" style="stop-color:#9898BB;stop-opacity:0.4807"/>
			<stop  offset="0.744" style="stop-color:#D0D0E0;stop-opacity:0.256"/>
			<stop  offset="0.9103" style="stop-color:#F2F2F6;stop-opacity:0.0897"/>
			<stop  offset="1" style="stop-color:#FFFFFF;stop-opacity:0"/>
		</radialGradient>
		
			<circle style="opacity:0.8;fill:url(#SVGID_00000053520237120229830030000005011316645086750106_);" cx="853.3" cy="229.09" r="29.68"/>
		<g>
			
				<linearGradient id="SVGID_00000021113120790751081770000002282323145023164069_" gradientUnits="userSpaceOnUse" x1="828.5513" y1="201.2139" x2="862.2542" y2="234.9167">
				<stop  offset="0" style="stop-color:#A436D2"/>
				<stop  offset="1" style="stop-color:#9146FF"/>
			</linearGradient>
			<circle style="fill:url(#SVGID_00000021113120790751081770000002282323145023164069_);" cx="845.4" cy="218.07" r="23.83"/>
			<g>
				<path class="st2" d="M840.52,207.22l-4.26,4.26v15.33h5.11v4.26l4.26-4.26h3.41l7.67-7.67v-11.93H840.52z M855,218.29
					l-3.41,3.41h-3.41l-2.98,2.98v-2.98h-3.83v-12.78H855V218.29z"/>
				<rect x="850.74" y="211.9" class="st2" width="1.7" height="5.11"/>
				<rect x="846.05" y="211.9" class="st2" width="1.7" height="5.11"/>
			</g>
		</g>
	</g>
	<g>
		<g>
			
				<linearGradient id="SVGID_00000173863092753256985750000008547916757822262946_" gradientUnits="userSpaceOnUse" x1="78.9606" y1="80.7896" x2="420.4105" y2="422.2395">
				<stop  offset="1.104800e-03" style="stop-color:#FFE185"/>
				<stop  offset="0.2094" style="stop-color:#FFBB36"/>
				<stop  offset="0.3765" style="stop-color:#FF5176"/>
				<stop  offset="0.5238" style="stop-color:#F63395"/>
				<stop  offset="0.7394" style="stop-color:#A436D2"/>
				<stop  offset="1" style="stop-color:#5F4EED"/>
			</linearGradient>
			<circle style="fill:url(#SVGID_00000173863092753256985750000008547916757822262946_);" cx="249.69" cy="251.51" r="241.44"/>
			<g>
				<path class="st2" d="M316.21,170.74c-8.14,0-14.73,6.6-14.73,14.73c0,8.14,6.6,14.73,14.73,14.73c8.14,0,14.73-6.6,14.73-14.73
					C330.95,177.33,324.35,170.74,316.21,170.74z"/>
				<path class="st2" d="M250.72,189.63c-34.12,0-61.89,27.76-61.89,61.88c0,34.12,27.76,61.88,61.89,61.88
					c34.12,0,61.88-27.76,61.88-61.88C312.6,217.39,284.84,189.63,250.72,189.63z M250.72,291.16c-21.86,0-39.64-17.78-39.64-39.64
					s17.78-39.64,39.64-39.64c21.86,0,39.64,17.78,39.64,39.64S272.58,291.16,250.72,291.16z"/>
				<path class="st2" d="M299.85,377.16H199.52c-41.62,0-75.48-33.86-75.48-75.48V201.35c0-41.62,33.86-75.48,75.48-75.48h100.33
					c41.62,0,75.48,33.86,75.48,75.48v100.33C375.33,343.3,341.47,377.16,299.85,377.16z M199.52,149.51
					c-28.59,0-51.84,23.25-51.84,51.84v100.33c0,28.59,23.25,51.84,51.84,51.84h100.33c28.59,0,51.84-23.25,51.84-51.84V201.35
					c0-28.59-23.26-51.84-51.84-51.84H199.52z"/>
			</g>
		</g>
	</g>
	<g>
		<g>
			
				<linearGradient id="SVGID_00000049197589332981713650000000260552520855397274_" gradientUnits="userSpaceOnUse" x1="-423.347" y1="144.5853" x2="-87.9211" y2="480.0112">
				<stop  offset="0" style="stop-color:#1677F1"/>
				<stop  offset="0.1756" style="stop-color:#186EE9"/>
				<stop  offset="0.4613" style="stop-color:#1E56D3"/>
				<stop  offset="0.8194" style="stop-color:#262EB0"/>
				<stop  offset="1" style="stop-color:#2B189C"/>
			</linearGradient>
			<circle style="fill:url(#SVGID_00000049197589332981713650000000260552520855397274_);" cx="-255.63" cy="312.3" r="237.18"/>
			<path class="st2" d="M-229.4,463.36V331.18h44.08l8.38-54.68h-52.46v-35.48c0-14.96,7.33-29.54,30.82-29.54h23.85v-46.55
				c0,0-21.65-3.69-42.34-3.69c-43.21,0-71.45,26.19-71.45,73.59v41.67h-48.03v54.68h48.03v132.18H-229.4z"/>
		</g>
	</g>
	<g>
		
			<radialGradient id="SVGID_00000160896738787737461810000016414009076666750894_" cx="853.2993" cy="97.9768" r="29.6844" gradientUnits="userSpaceOnUse">
			<stop  offset="0" style="stop-color:#000057"/>
			<stop  offset="0.2482" style="stop-color:#4C4C89;stop-opacity:0.7518"/>
			<stop  offset="0.5193" style="stop-color:#9898BB;stop-opacity:0.4807"/>
			<stop  offset="0.744" style="stop-color:#D0D0E0;stop-opacity:0.256"/>
			<stop  offset="0.9103" style="stop-color:#F2F2F6;stop-opacity:0.0897"/>
			<stop  offset="1" style="stop-color:#FFFFFF;stop-opacity:0"/>
		</radialGradient>
		
			<circle style="opacity:0.8;fill:url(#SVGID_00000160896738787737461810000016414009076666750894_);" cx="853.3" cy="97.98" r="29.68"/>
		<g>
			
				<linearGradient id="SVGID_00000115500377749713538020000001683337443760597156_" gradientUnits="userSpaceOnUse" x1="828.5513" y1="67.716" x2="862.2542" y2="101.4188">
				<stop  offset="0" style="stop-color:#23004A"/>
				<stop  offset="0.9565" style="stop-color:#020003"/>
				<stop  offset="1" style="stop-color:#000000"/>
			</linearGradient>
			<circle style="fill:url(#SVGID_00000115500377749713538020000001683337443760597156_);" cx="845.4" cy="84.57" r="23.83"/>
			<path class="st24" d="M850.39,80.84c1.73,1.24,3.85,1.96,6.14,1.96V78.4c-0.43,0-0.87-0.04-1.29-0.13v3.47
				c-2.29,0-4.41-0.73-6.14-1.96v8.99c0,4.5-3.65,8.14-8.15,8.14c-1.68,0-3.24-0.51-4.54-1.38c1.48,1.51,3.54,2.45,5.82,2.45
				c4.5,0,8.15-3.65,8.15-8.14L850.39,80.84L850.39,80.84z M851.99,76.4c-0.88-0.97-1.47-2.21-1.59-3.59v-0.57h-1.22
				C849.48,73.99,850.53,75.49,851.99,76.4L851.99,76.4z M839.27,92.08c-0.49-0.65-0.76-1.44-0.76-2.26c0-2.06,1.67-3.72,3.73-3.72
				c0.38,0,0.76,0.06,1.13,0.17v-4.5c-0.43-0.06-0.86-0.08-1.29-0.07v3.51c-0.37-0.12-0.75-0.17-1.13-0.17
				c-2.06,0-3.73,1.67-3.73,3.72C837.22,90.2,838.05,91.46,839.27,92.08z"/>
			<path class="st7" d="M849.1,79.77c1.73,1.24,3.85,1.96,6.14,1.96v-3.47c-1.28-0.27-2.41-0.94-3.26-1.87
				c-1.46-0.91-2.51-2.41-2.81-4.16h-3.21v17.6c-0.01,2.05-1.67,3.71-3.73,3.71c-1.21,0-2.29-0.58-2.97-1.47
				c-1.22-0.61-2.05-1.87-2.05-3.33c0-2.06,1.67-3.72,3.73-3.72c0.39,0,0.77,0.06,1.13,0.17v-3.51c-4.42,0.09-7.98,3.7-7.98,8.14
				c0,2.22,0.89,4.23,2.32,5.69c1.3,0.87,2.86,1.38,4.54,1.38c4.5,0,8.15-3.65,8.15-8.14V79.77z"/>
			<path class="st25" d="M855.25,78.27v-0.94c-1.15,0-2.28-0.32-3.26-0.93C852.85,77.35,853.99,78,855.25,78.27z M849.17,72.24
				c-0.03-0.17-0.05-0.34-0.07-0.51v-0.57h-4.43v17.6c-0.01,2.05-1.67,3.71-3.73,3.71c-0.6,0-1.17-0.14-1.68-0.4
				c0.68,0.89,1.76,1.47,2.97,1.47c2.05,0,3.72-1.66,3.73-3.71v-17.6H849.17z M842.08,81.69v-1c-0.37-0.05-0.74-0.08-1.12-0.08
				c-4.5,0-8.15,3.65-8.15,8.14c0,2.82,1.43,5.3,3.61,6.77c-1.44-1.47-2.32-3.48-2.32-5.69C834.1,85.39,837.65,81.78,842.08,81.69
				L842.08,81.69z"/>
		</g>
	</g>
	<g>
		
			<radialGradient id="SVGID_00000075145465707124553110000011539964502636724401_" cx="668.1555" cy="97.9768" r="29.6844" gradientUnits="userSpaceOnUse">
			<stop  offset="0" style="stop-color:#000057"/>
			<stop  offset="0.2482" style="stop-color:#4C4C89;stop-opacity:0.7518"/>
			<stop  offset="0.5193" style="stop-color:#9898BB;stop-opacity:0.4807"/>
			<stop  offset="0.744" style="stop-color:#D0D0E0;stop-opacity:0.256"/>
			<stop  offset="0.9103" style="stop-color:#F2F2F6;stop-opacity:0.0897"/>
			<stop  offset="1" style="stop-color:#FFFFFF;stop-opacity:0"/>
		</radialGradient>
		
			<circle style="opacity:0.8;fill:url(#SVGID_00000075145465707124553110000011539964502636724401_);" cx="668.16" cy="97.98" r="29.68"/>
		<g>
			
				<linearGradient id="SVGID_00000152237689804485563340000011807630901038631590_" gradientUnits="userSpaceOnUse" x1="643.2524" y1="67.716" x2="676.9551" y2="101.4188">
				<stop  offset="0" style="stop-color:#23004A"/>
				<stop  offset="0.9565" style="stop-color:#020003"/>
				<stop  offset="1" style="stop-color:#000000"/>
			</linearGradient>
			<circle style="fill:url(#SVGID_00000152237689804485563340000011807630901038631590_);" cx="660.1" cy="84.57" r="23.83"/>
			<path class="st2" d="M662.12,82.89l7.9-9.19h-1.87l-6.86,7.98l-5.48-7.98h-6.32l8.29,12.06l-8.29,9.63h1.87l7.25-8.42l5.79,8.42
				h6.32L662.12,82.89L662.12,82.89z M659.56,85.88l-0.84-1.2l-6.68-9.56h2.88l5.39,7.71l0.84,1.2l7.01,10.03h-2.88L659.56,85.88
				L659.56,85.88z"/>
		</g>
	</g>
	<g>
		
			<radialGradient id="SVGID_00000049929179455738889270000006499602607967642765_" cx="945.8712" cy="97.9768" r="29.6844" gradientUnits="userSpaceOnUse">
			<stop  offset="0" style="stop-color:#000057"/>
			<stop  offset="0.2482" style="stop-color:#4C4C89;stop-opacity:0.7518"/>
			<stop  offset="0.5193" style="stop-color:#9898BB;stop-opacity:0.4807"/>
			<stop  offset="0.744" style="stop-color:#D0D0E0;stop-opacity:0.256"/>
			<stop  offset="0.9103" style="stop-color:#F2F2F6;stop-opacity:0.0897"/>
			<stop  offset="1" style="stop-color:#FFFFFF;stop-opacity:0"/>
		</radialGradient>
		
			<circle style="opacity:0.8;fill:url(#SVGID_00000049929179455738889270000006499602607967642765_);" cx="945.87" cy="97.98" r="29.68"/>
		<g>
			
				<linearGradient id="SVGID_00000092453391260838405730000007736642397441666981_" gradientUnits="userSpaceOnUse" x1="921.2009" y1="67.716" x2="954.9036" y2="101.4188">
				<stop  offset="0" style="stop-color:#5865F2"/>
				<stop  offset="0.7084" style="stop-color:#651EE2"/>
				<stop  offset="1" style="stop-color:#6A00DB"/>
			</linearGradient>
			<circle style="fill:url(#SVGID_00000092453391260838405730000007736642397441666981_);" cx="938.05" cy="84.57" r="23.83"/>
			<path class="st2" d="M948.5,75.02c-1.98-0.91-4.06-1.55-6.21-1.92c-0.27,0.48-0.58,1.12-0.79,1.63c-2.28-0.34-4.6-0.34-6.88,0
				c-0.24-0.56-0.52-1.1-0.82-1.63c-2.15,0.36-4.24,1.01-6.21,1.93c-3.92,5.84-4.98,11.54-4.45,17.16c2.3,1.71,4.88,3.01,7.62,3.84
				c0.62-0.84,1.16-1.72,1.63-2.65c-0.89-0.33-1.75-0.74-2.57-1.23c0.21-0.16,0.42-0.32,0.62-0.49c4.82,2.28,10.41,2.28,15.24,0
				c0.2,0.17,0.42,0.33,0.63,0.49c-0.82,0.49-1.68,0.9-2.57,1.23c0.47,0.92,1.02,1.81,1.63,2.64c2.74-0.83,5.32-2.13,7.62-3.84
				C953.59,85.68,951.9,80.03,948.5,75.02z M933.05,88.74c-1.49,0-2.7-1.36-2.7-3.03c0-1.67,1.19-3.04,2.7-3.04s2.72,1.36,2.71,3.03
				C935.74,87.37,934.56,88.74,933.05,88.74z M943.05,88.74c-1.49,0-2.7-1.36-2.7-3.03c0-1.67,1.19-3.04,2.7-3.04
				s2.72,1.36,2.7,3.03C945.74,87.37,944.56,88.74,943.05,88.74z"/>
		</g>
	</g>
	<g>
		
			<radialGradient id="SVGID_00000049183445173416746510000011818306012521743750_" cx="945.8712" cy="229.0897" r="29.6844" gradientUnits="userSpaceOnUse">
			<stop  offset="0" style="stop-color:#000057"/>
			<stop  offset="0.2482" style="stop-color:#4C4C89;stop-opacity:0.7518"/>
			<stop  offset="0.5193" style="stop-color:#9898BB;stop-opacity:0.4807"/>
			<stop  offset="0.744" style="stop-color:#D0D0E0;stop-opacity:0.256"/>
			<stop  offset="0.9103" style="stop-color:#F2F2F6;stop-opacity:0.0897"/>
			<stop  offset="1" style="stop-color:#FFFFFF;stop-opacity:0"/>
		</radialGradient>
		
			<circle style="opacity:0.8;fill:url(#SVGID_00000049183445173416746510000011818306012521743750_);" cx="945.87" cy="229.09" r="29.68"/>
		<g>
			
				<linearGradient id="SVGID_00000175310255392993802370000005460044099974907010_" gradientUnits="userSpaceOnUse" x1="921.2009" y1="201.2139" x2="954.9036" y2="234.9167">
				<stop  offset="0" style="stop-color:#2CB5E5"/>
				<stop  offset="0.6467" style="stop-color:#6C6EF6"/>
				<stop  offset="1" style="stop-color:#9146FF"/>
			</linearGradient>
			<circle style="fill:url(#SVGID_00000175310255392993802370000005460044099974907010_);" cx="938.05" cy="218.07" r="23.83"/>
			<path class="st2" d="M924.39,217.5c0,0,11.92-4.89,16.06-6.62c1.59-0.69,6.96-2.89,6.96-2.89s2.48-0.96,2.27,1.38
				c-0.07,0.96-0.62,4.34-1.17,7.99c-0.83,5.17-1.72,10.82-1.72,10.82s-0.14,1.59-1.31,1.86c-1.17,0.28-3.1-0.96-3.45-1.24
				c-0.28-0.21-5.17-3.31-6.96-4.82c-0.48-0.41-1.03-1.24,0.07-2.21c2.48-2.27,5.44-5.1,7.24-6.89c0.83-0.83,1.65-2.76-1.79-0.41
				c-4.89,3.38-9.72,6.55-9.72,6.55s-1.1,0.69-3.17,0.07c-2.07-0.62-4.48-1.45-4.48-1.45S921.57,218.61,924.39,217.5L924.39,217.5z"
				/>
		</g>
	</g>
	<g>
		
			<radialGradient id="SVGID_00000119809194987094087030000015917191959501271724_" cx="575.5837" cy="466.2717" r="29.6844" gradientUnits="userSpaceOnUse">
			<stop  offset="0" style="stop-color:#000057"/>
			<stop  offset="0.2482" style="stop-color:#4C4C89;stop-opacity:0.7518"/>
			<stop  offset="0.5193" style="stop-color:#9898BB;stop-opacity:0.4807"/>
			<stop  offset="0.744" style="stop-color:#D0D0E0;stop-opacity:0.256"/>
			<stop  offset="0.9103" style="stop-color:#F2F2F6;stop-opacity:0.0897"/>
			<stop  offset="1" style="stop-color:#FFFFFF;stop-opacity:0"/>
		</radialGradient>
		
			<circle style="opacity:0.8;fill:url(#SVGID_00000119809194987094087030000015917191959501271724_);" cx="575.58" cy="466.27" r="29.68"/>
		<g>
			<circle cx="567.45" cy="455.25" r="23.83"/>
			<g>
				<path class="st2" d="M557.91,449.67h4.1v13.16h-4.1V449.67z M559.96,443.13c1.31,0,2.37,1.06,2.37,2.37
					c0,1.31-1.06,2.37-2.37,2.37c-1.31,0-2.38-1.06-2.38-2.37C557.58,444.19,558.64,443.13,559.96,443.13"/>
				<path class="st2" d="M564.57,449.67h3.92v1.8h0.05c0.55-1.04,1.88-2.13,3.87-2.13c4.14,0,4.91,2.72,4.91,6.27v7.22h-4.09v-6.4
					c0-1.53-0.03-3.49-2.13-3.49c-2.13,0-2.45,1.66-2.45,3.38v6.51h-4.09V449.67z"/>
			</g>
		</g>
	</g>
	<g>
		
			<radialGradient id="SVGID_00000088124869047264187560000003870354409214257070_" cx="668.1555" cy="466.2717" r="29.6844" gradientUnits="userSpaceOnUse">
			<stop  offset="0" style="stop-color:#000057"/>
			<stop  offset="0.2482" style="stop-color:#4C4C89;stop-opacity:0.7518"/>
			<stop  offset="0.5193" style="stop-color:#9898BB;stop-opacity:0.4807"/>
			<stop  offset="0.744" style="stop-color:#D0D0E0;stop-opacity:0.256"/>
			<stop  offset="0.9103" style="stop-color:#F2F2F6;stop-opacity:0.0897"/>
			<stop  offset="1" style="stop-color:#FFFFFF;stop-opacity:0"/>
		</radialGradient>
		
			<circle style="opacity:0.8;fill:url(#SVGID_00000088124869047264187560000003870354409214257070_);" cx="668.16" cy="466.27" r="29.68"/>
		<g>
			<circle cx="660.1" cy="455.25" r="23.83"/>
			<path class="st2" d="M660.1,443.36c-6.56,0-11.9,5.33-11.9,11.89c0,6.55,5.34,11.88,11.9,11.88c6.56,0,11.9-5.33,11.9-11.88
				C672,448.69,666.67,443.36,660.1,443.36L660.1,443.36z M667.93,448.97c1.36,1.68,2.18,3.81,2.22,6.12
				c-0.45-0.09-2.36-0.45-4.65-0.45c-0.74,0-1.51,0.04-2.29,0.13c-0.07-0.16-0.13-0.32-0.2-0.48c-0.2-0.47-0.42-0.95-0.64-1.41
				C665.88,451.44,667.58,449.43,667.93,448.97L667.93,448.97z M660.1,445.22c2.54,0,4.85,0.94,6.62,2.49
				c-0.28,0.38-1.8,2.28-5.19,3.56c-1.57-2.87-3.29-5.25-3.7-5.8C658.57,445.31,659.32,445.22,660.1,445.22L660.1,445.22z
				 M655.78,446.2c0.35,0.48,2.07,2.88,3.68,5.73c-4.32,1.14-8.16,1.21-9.09,1.21h-0.1C650.94,450.07,653.02,447.52,655.78,446.2
				L655.78,446.2z M650.05,455.26c0-0.08,0-0.17,0-0.25c0.06,0,0.15,0,0.26,0c1.25,0,5.58-0.1,10.04-1.43
				c0.27,0.53,0.53,1.07,0.77,1.6c-0.11,0.03-0.22,0.06-0.33,0.1c-5.02,1.62-7.79,5.92-8.21,6.62
				C651.01,460.14,650.05,457.81,650.05,455.26L650.05,455.26z M660.1,465.3c-2.31,0-4.43-0.78-6.13-2.09
				c0.29-0.56,2.37-4.32,7.88-6.23c0,0,0.01,0,0.01,0c1.38,3.59,1.97,6.61,2.13,7.55C662.79,465.03,661.48,465.3,660.1,465.3
				L660.1,465.3z M665.8,463.53c-0.13-0.77-0.68-3.6-1.93-7.05c0.7-0.11,1.38-0.15,2.02-0.15c2.1,0,3.74,0.46,4.13,0.58
				C669.57,459.65,668,462.02,665.8,463.53L665.8,463.53z"/>
		</g>
	</g>
	<g>
		
			<radialGradient id="SVGID_00000088824190966574720010000004101418963242839477_" cx="760.7274" cy="466.2717" r="29.6844" gradientUnits="userSpaceOnUse">
			<stop  offset="0" style="stop-color:#000057"/>
			<stop  offset="0.2482" style="stop-color:#4C4C89;stop-opacity:0.7518"/>
			<stop  offset="0.5193" style="stop-color:#9898BB;stop-opacity:0.4807"/>
			<stop  offset="0.744" style="stop-color:#D0D0E0;stop-opacity:0.256"/>
			<stop  offset="0.9103" style="stop-color:#F2F2F6;stop-opacity:0.0897"/>
			<stop  offset="1" style="stop-color:#FFFFFF;stop-opacity:0"/>
		</radialGradient>
		
			<circle style="opacity:0.8;fill:url(#SVGID_00000088824190966574720010000004101418963242839477_);" cx="760.73" cy="466.27" r="29.68"/>
		<g>
			<circle cx="752.75" cy="455.25" r="23.83"/>
			<path class="st7" d="M751.13,459.7c-0.02,0.07-0.04,0.14-0.06,0.2c-0.94,3.69-1.05,4.52-2.02,6.23
				c-0.46,0.82-0.98,1.59-1.56,2.33c-0.07,0.08-0.13,0.19-0.26,0.17c-0.14-0.03-0.15-0.16-0.17-0.27c-0.16-1.12-0.24-2.25-0.2-3.38
				c0.05-1.48,0.23-1.98,2.13-9.99c0.03-0.12,0-0.22-0.04-0.33c-0.46-1.23-0.55-2.48-0.15-3.74c0.86-2.73,3.96-2.94,4.5-0.69
				c0.33,1.39-0.55,3.22-1.23,5.91c-0.56,2.22,2.06,3.8,4.29,2.18c2.06-1.5,2.86-5.08,2.71-7.63c-0.3-5.07-5.86-6.16-9.39-4.53
				c-4.04,1.87-4.96,6.88-3.14,9.17c0.23,0.29,0.41,0.47,0.33,0.76c-0.12,0.46-0.22,0.92-0.35,1.38c-0.09,0.34-0.38,0.46-0.72,0.32
				c-0.67-0.27-1.23-0.7-1.69-1.26c-1.55-1.92-1.99-5.72,0.06-8.93c2.27-3.56,6.49-5,10.35-4.56c4.61,0.52,7.52,3.67,8.06,7.24
				c0.25,1.63,0.07,5.64-2.21,8.47c-2.63,3.26-6.88,3.47-8.85,1.47C751.4,460.06,751.27,459.88,751.13,459.7z"/>
		</g>
	</g>
	<g>
		
			<radialGradient id="SVGID_00000170270446849128573320000010871770134703604895_" cx="760.7274" cy="400.7152" r="29.6844" gradientUnits="userSpaceOnUse">
			<stop  offset="0" style="stop-color:#000057"/>
			<stop  offset="0.2482" style="stop-color:#4C4C89;stop-opacity:0.7518"/>
			<stop  offset="0.5193" style="stop-color:#9898BB;stop-opacity:0.4807"/>
			<stop  offset="0.744" style="stop-color:#D0D0E0;stop-opacity:0.256"/>
			<stop  offset="0.9103" style="stop-color:#F2F2F6;stop-opacity:0.0897"/>
			<stop  offset="1" style="stop-color:#FFFFFF;stop-opacity:0"/>
		</radialGradient>
		
			<circle style="opacity:0.8;fill:url(#SVGID_00000170270446849128573320000010871770134703604895_);" cx="760.73" cy="400.72" r="29.68"/>
		<g>
			<circle cx="752.75" cy="388.5" r="23.83"/>
			<g>
				<path class="st2" d="M740.48,400.8l1.76-6.58c-1-1.8-1.52-3.82-1.52-5.87c0-6.7,5.45-12.15,12.15-12.15
					c6.7,0,12.15,5.45,12.15,12.15c0,6.7-5.45,12.15-12.15,12.15c-2.01,0-4-0.51-5.78-1.47L740.48,400.8z M747.43,396.56l0.42,0.25
					c1.53,0.91,3.27,1.39,5.03,1.39c5.43,0,9.85-4.42,9.85-9.85c0-5.43-4.42-9.85-9.85-9.85c-5.43,0-9.85,4.42-9.85,9.85
					c0,1.79,0.5,3.56,1.44,5.11l0.26,0.42l-0.98,3.67L747.43,396.56z"/>
				<path class="st7" d="M757.39,390.04c-0.5-0.3-1.15-0.63-1.74-0.39c-0.45,0.18-0.74,0.89-1.03,1.25
					c-0.15,0.19-0.33,0.21-0.56,0.12c-1.7-0.68-3-1.81-3.93-3.37c-0.16-0.24-0.13-0.43,0.06-0.66c0.28-0.33,0.64-0.71,0.71-1.16
					c0.08-0.45-0.13-0.97-0.32-1.37c-0.24-0.51-0.5-1.24-1.01-1.53c-0.47-0.27-1.09-0.12-1.51,0.22c-0.72,0.59-1.07,1.51-1.06,2.43
					c0,0.26,0.03,0.52,0.1,0.77c0.15,0.6,0.42,1.17,0.74,1.7c0.24,0.4,0.49,0.8,0.77,1.17c0.91,1.23,2.04,2.3,3.34,3.11
					c0.65,0.4,1.36,0.75,2.09,0.99c0.82,0.27,1.55,0.55,2.43,0.38c0.92-0.18,1.83-0.75,2.2-1.64c0.11-0.26,0.16-0.56,0.1-0.84
					C758.64,390.66,757.86,390.32,757.39,390.04z"/>
			</g>
		</g>
	</g>
	<g>
		
			<radialGradient id="SVGID_00000021090509052178130060000002701113439956298649_" cx="575.5837" cy="400.7152" r="29.6844" gradientUnits="userSpaceOnUse">
			<stop  offset="0" style="stop-color:#000057"/>
			<stop  offset="0.2482" style="stop-color:#4C4C89;stop-opacity:0.7518"/>
			<stop  offset="0.5193" style="stop-color:#9898BB;stop-opacity:0.4807"/>
			<stop  offset="0.744" style="stop-color:#D0D0E0;stop-opacity:0.256"/>
			<stop  offset="0.9103" style="stop-color:#F2F2F6;stop-opacity:0.0897"/>
			<stop  offset="1" style="stop-color:#FFFFFF;stop-opacity:0"/>
		</radialGradient>
		
			<circle style="opacity:0.8;fill:url(#SVGID_00000021090509052178130060000002701113439956298649_);" cx="575.58" cy="400.72" r="29.68"/>
		<g>
			<circle cx="567.45" cy="388.5" r="23.83"/>
			<path class="st2" d="M567.46,401.39c-1.05,0-2.11-0.3-3.13-0.9c-0.41-0.24-0.8-0.5-1.2-0.77l-0.45-0.3
				c-0.34-0.22-0.72-0.36-1.18-0.43c-0.17-0.03-0.34-0.04-0.5-0.04c-0.4,0-0.8,0.06-1.2,0.11l-0.63,0.08l-0.2,0.01
				c-0.78,0-1.33-0.47-1.36-1.16c-0.03-0.47-0.12-0.67-0.98-0.77c-0.52-0.06-1-0.26-1.39-0.42c-0.67-0.28-1.12-0.68-1.37-1.22
				l-0.06-0.13v-0.8l0.16-0.19c0.22-0.26,0.52-0.54,0.99-0.63c1.72-0.34,3.05-1.37,4.18-3.25c0.43-0.71,0.46-0.92,0.45-0.98
				c-0.02-0.03-0.19-0.17-1.01-0.47c-0.16-0.05-0.24-0.08-0.32-0.11c-0.4-0.16-0.82-0.35-1.2-0.68c-0.51-0.44-0.71-1.03-0.57-1.63
				c0.16-0.65,0.7-1.16,1.43-1.33c0.15-0.04,0.3-0.05,0.45-0.05c0.4,0,0.76,0.12,1.07,0.23c0.1,0.03,0.2,0.07,0.29,0.09
				c-0.09-1-0.1-2.03-0.05-3.28c0.11-2.36,1.26-4.26,3.33-5.49c1.44-0.86,2.93-1.29,4.43-1.29c1.48,0,2.96,0.42,4.38,1.26
				c1.92,1.13,3.07,2.84,3.32,4.97c0.15,1.3,0.1,2.59,0.01,3.79c0.07-0.02,0.15-0.05,0.22-0.07c0.33-0.1,0.7-0.22,1.11-0.22
				c0.3,0,0.59,0.06,0.87,0.18c0.69,0.3,1.13,0.93,1.11,1.59c-0.01,0.45-0.24,0.9-0.63,1.24c-0.39,0.34-0.85,0.52-1.25,0.69
				l-0.49,0.19c-0.18,0.06-0.35,0.13-0.52,0.21c-0.21,0.1-0.26,0.17-0.27,0.17c0,0,0,0.07,0.07,0.23c1.07,2.25,2.49,3.52,4.48,3.99
				c0.48,0.11,0.84,0.33,1.1,0.68l0.13,0.18v0.79l-0.07,0.14c-0.27,0.57-0.76,0.97-1.48,1.24c-0.59,0.23-1.09,0.42-1.65,0.46
				c-0.4,0.03-0.5,0.11-0.55,0.5c-0.09,0.62-0.33,1.33-1.4,1.33c-0.1,0-0.22-0.01-0.35-0.02c-0.17-0.01-0.35-0.04-0.53-0.08
				c-0.38-0.07-0.72-0.1-1.05-0.1c-0.88,0-1.62,0.25-2.27,0.77c-0.21,0.17-0.44,0.31-0.66,0.46
				C569.83,401.01,568.64,401.39,567.46,401.39z"/>
			<path d="M567.45,376.28c1.35,0,2.71,0.39,4.04,1.17c1.67,0.98,2.75,2.47,2.99,4.46c0.15,1.3,0.09,2.6-0.01,3.89
				c-0.03,0.42,0.02,0.59,0.29,0.59c0.09,0,0.2-0.02,0.34-0.05c0.49-0.12,0.93-0.33,1.4-0.33c0.19,0,0.39,0.04,0.59,0.13
				c0.38,0.17,0.72,0.53,0.71,0.95c-0.01,0.29-0.17,0.55-0.39,0.74c-0.33,0.29-0.77,0.45-1.17,0.61c-0.31,0.13-0.64,0.22-0.94,0.37
				c-0.63,0.29-0.81,0.68-0.52,1.31c1.02,2.15,2.52,3.79,4.94,4.36c0.3,0.07,0.53,0.19,0.71,0.43c0,0.14,0,0.27,0,0.41
				c-0.23,0.47-0.64,0.73-1.11,0.91c-0.47,0.18-0.95,0.38-1.46,0.41c-0.7,0.04-1.07,0.35-1.18,1.08c-0.09,0.59-0.25,0.75-0.73,0.75
				c-0.09,0-0.18-0.01-0.29-0.01c-0.17-0.01-0.33-0.04-0.5-0.07c-0.39-0.07-0.77-0.11-1.14-0.11c-0.96,0-1.87,0.26-2.69,0.92
				c-0.22,0.18-0.47,0.33-0.71,0.49c-1.04,0.68-2.1,1.03-3.17,1.03c-0.92,0-1.85-0.26-2.79-0.81c-0.55-0.32-1.08-0.7-1.62-1.05
				c-0.44-0.29-0.92-0.45-1.46-0.53c-0.2-0.03-0.4-0.04-0.6-0.04c-0.63,0-1.25,0.13-1.87,0.19c-0.06,0.01-0.11,0.01-0.16,0.01
				c-0.36,0-0.67-0.14-0.69-0.52c-0.06-1.05-0.7-1.31-1.58-1.4c-0.41-0.05-0.82-0.21-1.2-0.37c-0.42-0.18-0.81-0.43-1.01-0.87
				c0-0.14,0-0.27,0-0.41c0.17-0.19,0.34-0.36,0.61-0.41c2.13-0.42,3.55-1.78,4.63-3.56c0.9-1.5,0.76-1.84-0.91-2.43
				c-0.1-0.03-0.19-0.06-0.29-0.1c-0.36-0.15-0.72-0.31-1.01-0.56c-0.75-0.65-0.3-1.58,0.57-1.79c0.1-0.02,0.2-0.03,0.29-0.03
				c0.52,0,1,0.31,1.53,0.37c0.05,0.01,0.1,0.01,0.15,0.01c0.31,0,0.43-0.16,0.38-0.54c-0.13-1.14-0.13-2.29-0.07-3.44
				c0.1-2.19,1.18-3.86,3-4.94C564.71,376.68,566.08,376.28,567.45,376.28 M567.45,374.93c-1.62,0-3.23,0.47-4.78,1.38
				c-2.28,1.35-3.54,3.44-3.66,6.04c-0.04,0.88-0.05,1.66-0.02,2.38c-0.19-0.04-0.4-0.07-0.62-0.07c-0.21,0-0.41,0.02-0.61,0.07
				c-0.97,0.23-1.71,0.93-1.93,1.83c-0.2,0.84,0.09,1.7,0.78,2.3c0.45,0.39,0.95,0.62,1.39,0.79c0.09,0.04,0.18,0.07,0.27,0.1
				c0.19,0.07,0.34,0.12,0.46,0.17c-0.05,0.09-0.11,0.19-0.18,0.31c-1.02,1.7-2.21,2.63-3.73,2.93c-0.77,0.15-1.21,0.66-1.37,0.85
				l-0.33,0.38v0.5v0.41v0.29l0.12,0.27c0.32,0.7,0.88,1.22,1.72,1.57c0.43,0.18,0.97,0.4,1.58,0.47c0.19,0.02,0.31,0.05,0.37,0.06
				c0,0.02,0,0.04,0.01,0.07c0.06,1.06,0.9,1.8,2.04,1.8c0.1,0,0.21-0.01,0.31-0.02c0.21-0.02,0.42-0.05,0.62-0.08
				c0.39-0.05,0.76-0.11,1.1-0.11c0.13,0,0.26,0.01,0.4,0.03c0.37,0.06,0.66,0.16,0.92,0.33l0.47,0.31c0.4,0.27,0.79,0.53,1.2,0.77
				c1.13,0.66,2.3,1,3.47,1c1.32,0,2.63-0.42,3.91-1.25l0.13-0.08c0.24-0.15,0.48-0.31,0.7-0.49c0.53-0.43,1.11-0.62,1.84-0.62
				c0.28,0,0.58,0.03,0.9,0.09c0.23,0.04,0.43,0.07,0.63,0.09c0.15,0.01,0.28,0.02,0.4,0.02c0.81,0,1.81-0.32,2.06-1.84
				c0.64-0.05,1.17-0.26,1.65-0.44l0.14-0.05c0.89-0.34,1.49-0.85,1.84-1.58l0.14-0.28v-0.31v-0.41v-0.45l-0.27-0.36
				c-0.35-0.47-0.85-0.79-1.49-0.94c-1.66-0.39-2.89-1.43-3.84-3.25c0.05-0.02,0.1-0.04,0.15-0.05c0.14-0.05,0.28-0.1,0.41-0.16
				l0.09-0.04c0.44-0.18,0.98-0.39,1.46-0.81c0.53-0.46,0.84-1.09,0.86-1.73c0.02-0.94-0.57-1.81-1.52-2.23
				c-0.36-0.16-0.75-0.24-1.14-0.24c-0.21,0-0.41,0.02-0.6,0.06c0.05-0.98,0.05-1.96-0.07-2.97c-0.28-2.34-1.54-4.23-3.65-5.47
				C570.65,375.38,569.06,374.93,567.45,374.93L567.45,374.93z"/>
		</g>
	</g>
	<g>
		
			<radialGradient id="SVGID_00000024698237162693595100000001328667989643311792_" cx="668.1555" cy="400.7152" r="29.6844" gradientUnits="userSpaceOnUse">
			<stop  offset="0" style="stop-color:#000057"/>
			<stop  offset="0.2482" style="stop-color:#4C4C89;stop-opacity:0.7518"/>
			<stop  offset="0.5193" style="stop-color:#9898BB;stop-opacity:0.4807"/>
			<stop  offset="0.744" style="stop-color:#D0D0E0;stop-opacity:0.256"/>
			<stop  offset="0.9103" style="stop-color:#F2F2F6;stop-opacity:0.0897"/>
			<stop  offset="1" style="stop-color:#FFFFFF;stop-opacity:0"/>
		</radialGradient>
		
			<circle style="opacity:0.8;fill:url(#SVGID_00000024698237162693595100000001328667989643311792_);" cx="668.16" cy="400.72" r="29.68"/>
		<g>
			<circle cx="660.1" cy="388.5" r="23.83"/>
			<path class="st2" d="M671.68,385.48c0-2.81-2.27-5.08-5.08-5.08h-12.99c-2.81,0-5.08,2.27-5.08,5.08v6.04
				c0,2.81,2.27,5.08,5.08,5.08h12.99c2.81,0,5.08-2.27,5.08-5.08V385.48z M664.04,388.95l-5.82,2.88c-0.23,0.12-1-0.04-1-0.3v-5.92
				c0-0.26,0.78-0.43,1.01-0.3l5.58,3.03C664.03,388.48,664.28,388.82,664.04,388.95z"/>
		</g>
	</g>
	<g>
		
			<radialGradient id="SVGID_00000003807978237507382630000005830944330401226917_" cx="853.2993" cy="400.7152" r="29.6844" gradientUnits="userSpaceOnUse">
			<stop  offset="0" style="stop-color:#000057"/>
			<stop  offset="0.2482" style="stop-color:#4C4C89;stop-opacity:0.7518"/>
			<stop  offset="0.5193" style="stop-color:#9898BB;stop-opacity:0.4807"/>
			<stop  offset="0.744" style="stop-color:#D0D0E0;stop-opacity:0.256"/>
			<stop  offset="0.9103" style="stop-color:#F2F2F6;stop-opacity:0.0897"/>
			<stop  offset="1" style="stop-color:#FFFFFF;stop-opacity:0"/>
		</radialGradient>
		
			<circle style="opacity:0.8;fill:url(#SVGID_00000003807978237507382630000005830944330401226917_);" cx="853.3" cy="400.72" r="29.68"/>
		<g>
			<circle cx="845.4" cy="388.5" r="23.83"/>
			<g>
				<path class="st2" d="M845.49,392.19c0,0.64-0.13,1.21-0.39,1.7c-0.26,0.49-0.61,0.89-1.06,1.22c-0.45,0.33-0.97,0.58-1.57,0.75
					c-0.59,0.17-1.23,0.26-1.9,0.26h-7.36v-15.24h8.16c0.53,0,1.01,0.11,1.44,0.34c0.43,0.23,0.79,0.53,1.09,0.89
					c0.3,0.37,0.53,0.78,0.7,1.25c0.16,0.47,0.25,0.93,0.25,1.41c0,0.74-0.19,1.44-0.56,2.09c-0.37,0.65-0.92,1.13-1.63,1.45
					c0.87,0.26,1.56,0.72,2.07,1.38C845.23,390.36,845.49,391.19,845.49,392.19z M836.17,383.41v3.84h3.95
					c0.5,0,0.93-0.17,1.28-0.52c0.35-0.34,0.53-0.82,0.53-1.42c0-0.59-0.16-1.05-0.48-1.4c-0.32-0.34-0.72-0.52-1.19-0.52H836.17z
					 M842.5,391.63c0-0.27-0.05-0.53-0.14-0.78c-0.09-0.25-0.22-0.47-0.38-0.65c-0.16-0.19-0.34-0.33-0.56-0.44
					c-0.21-0.11-0.45-0.16-0.71-0.16h-4.55v4.01h4.4c0.27,0,0.53-0.05,0.76-0.15c0.24-0.1,0.44-0.24,0.61-0.42
					c0.17-0.18,0.31-0.39,0.41-0.63C842.45,392.16,842.5,391.91,842.5,391.63z"/>
				<path class="st2" d="M851.9,396.12c-0.87,0-1.66-0.15-2.37-0.45c-1.4-0.6-2.39-1.6-2.96-3.01c-0.27-0.68-0.41-1.39-0.41-2.14
					c0-0.78,0.13-1.51,0.4-2.19c0.56-1.43,1.55-2.44,2.96-3.05c0.71-0.3,1.52-0.46,2.4-0.46c0.89,0,1.68,0.15,2.38,0.46
					c2.3,1,3.39,3.23,3.29,5.66c-0.01,0.17-0.02,0.31-0.05,0.42h-8.43c0.04,0.43,0.15,0.81,0.31,1.14c0.17,0.33,0.38,0.62,0.64,0.85
					c0.26,0.24,0.56,0.42,0.89,0.54c0.33,0.12,0.68,0.19,1.04,0.19c0.55,0,1.08-0.14,1.57-0.41c0.49-0.27,0.83-0.63,1.01-1.07
					l2.39,0.67c-0.4,0.83-1.04,1.52-1.92,2.05C854.17,395.85,853.12,396.12,851.9,396.12z M854.73,389.55
					c-0.07-0.82-0.37-1.47-0.91-1.97c-0.53-0.49-1.18-0.74-1.95-0.74c-0.37,0-0.72,0.07-1.05,0.2c-0.33,0.13-0.61,0.32-0.86,0.55
					c-0.25,0.24-0.45,0.52-0.61,0.85c-0.16,0.33-0.25,0.7-0.28,1.1L854.73,389.55L854.73,389.55z"/>
				<path class="st2" d="M848.24,381.6h7.29v1.81h-7.29V381.6z"/>
			</g>
		</g>
	</g>
	<g>
		
			<radialGradient id="SVGID_00000105384685705565580080000007984378843278804392_" cx="945.8712" cy="400.7152" r="29.6844" gradientUnits="userSpaceOnUse">
			<stop  offset="0" style="stop-color:#000057"/>
			<stop  offset="0.2482" style="stop-color:#4C4C89;stop-opacity:0.7518"/>
			<stop  offset="0.5193" style="stop-color:#9898BB;stop-opacity:0.4807"/>
			<stop  offset="0.744" style="stop-color:#D0D0E0;stop-opacity:0.256"/>
			<stop  offset="0.9103" style="stop-color:#F2F2F6;stop-opacity:0.0897"/>
			<stop  offset="1" style="stop-color:#FFFFFF;stop-opacity:0"/>
		</radialGradient>
		
			<circle style="opacity:0.8;fill:url(#SVGID_00000105384685705565580080000007984378843278804392_);" cx="945.87" cy="400.72" r="29.68"/>
		<g>
			<circle cx="938.05" cy="388.5" r="23.83"/>
			<path class="st2" d="M943.6,387.46c0.11,0.05,0.21,0.1,0.32,0.14c1.49,0.72,2.59,1.8,3.16,3.14c0.8,1.87,0.88,4.9-1.55,7.32
				c-1.85,1.85-4.11,2.68-7.29,2.71h-0.02c-3.59-0.03-6.34-1.23-8.2-3.59c-1.65-2.1-2.5-5.02-2.53-8.67v-0.02v-0.01
				c0.03-3.66,0.87-6.57,2.53-8.67c1.86-2.36,4.62-3.56,8.21-3.59h0.02c3.59,0.03,6.39,1.23,8.3,3.57c0.94,1.16,1.64,2.56,2.08,4.18
				l-2.07,0.55c-0.36-1.32-0.91-2.44-1.65-3.34c-1.49-1.83-3.73-2.77-6.67-2.79c-2.91,0.03-5.12,0.96-6.55,2.78
				c-1.34,1.7-2.03,4.17-2.06,7.32c0.03,3.15,0.72,5.62,2.06,7.33c1.43,1.82,3.64,2.76,6.55,2.78c2.63-0.02,4.37-0.64,5.81-2.09
				c1.65-1.65,1.62-3.67,1.09-4.9c-0.31-0.73-0.87-1.33-1.63-1.78c-0.19,1.38-0.6,2.47-1.26,3.31c-0.87,1.11-2.12,1.72-3.72,1.8
				c-1.21,0.07-2.37-0.22-3.27-0.82c-1.06-0.71-1.69-1.78-1.75-3.03c-0.13-2.47,1.83-4.24,4.87-4.42c1.08-0.06,2.09-0.02,3.03,0.14
				c-0.12-0.76-0.37-1.36-0.75-1.8c-0.51-0.6-1.31-0.9-2.36-0.91h-0.04c-0.85,0-1.99,0.24-2.73,1.34l-1.76-1.21
				c0.98-1.49,2.57-2.31,4.49-2.31h0.04c3.2,0.02,5.11,2.02,5.3,5.51L943.6,387.46L943.6,387.46z M935.62,390.98
				c0.07,1.28,1.45,1.88,2.79,1.8c1.31-0.07,2.79-0.58,3.04-3.74c-0.67-0.15-1.42-0.22-2.22-0.22c-0.25,0-0.49,0.01-0.74,0.02
				C936.31,388.96,935.58,390.02,935.62,390.98L935.62,390.98L935.62,390.98z"/>
		</g>
	</g>
	<g>
		
			<radialGradient id="SVGID_00000152264872645305116250000012363423190397351553_" cx="853.2993" cy="466.2717" r="29.6844" gradientUnits="userSpaceOnUse">
			<stop  offset="0" style="stop-color:#000057"/>
			<stop  offset="0.2482" style="stop-color:#4C4C89;stop-opacity:0.7518"/>
			<stop  offset="0.5193" style="stop-color:#9898BB;stop-opacity:0.4807"/>
			<stop  offset="0.744" style="stop-color:#D0D0E0;stop-opacity:0.256"/>
			<stop  offset="0.9103" style="stop-color:#F2F2F6;stop-opacity:0.0897"/>
			<stop  offset="1" style="stop-color:#FFFFFF;stop-opacity:0"/>
		</radialGradient>
		
			<circle style="opacity:0.8;fill:url(#SVGID_00000152264872645305116250000012363423190397351553_);" cx="853.3" cy="466.27" r="29.68"/>
		<g>
			<circle cx="845.4" cy="455.25" r="23.83"/>
			<g>
				<path class="st2" d="M840.52,444.4l-4.26,4.26v15.33h5.11v4.26l4.26-4.26h3.41l7.67-7.67V444.4H840.52z M855,455.47l-3.41,3.41
					h-3.41l-2.98,2.98v-2.98h-3.83V446.1H855V455.47z"/>
				<rect x="850.74" y="449.08" class="st2" width="1.7" height="5.11"/>
				<rect x="846.05" y="449.08" class="st2" width="1.7" height="5.11"/>
			</g>
		</g>
	</g>
	<g>
		
			<radialGradient id="SVGID_00000176759327687190608240000008158409159882267574_" cx="760.7274" cy="335.1588" r="29.6844" gradientUnits="userSpaceOnUse">
			<stop  offset="0" style="stop-color:#000057"/>
			<stop  offset="0.2482" style="stop-color:#4C4C89;stop-opacity:0.7518"/>
			<stop  offset="0.5193" style="stop-color:#9898BB;stop-opacity:0.4807"/>
			<stop  offset="0.744" style="stop-color:#D0D0E0;stop-opacity:0.256"/>
			<stop  offset="0.9103" style="stop-color:#F2F2F6;stop-opacity:0.0897"/>
			<stop  offset="1" style="stop-color:#FFFFFF;stop-opacity:0"/>
		</radialGradient>
		
			<circle style="opacity:0.8;fill:url(#SVGID_00000176759327687190608240000008158409159882267574_);" cx="760.73" cy="335.16" r="29.68"/>
		<g>
			<circle cx="752.75" cy="321.75" r="23.83"/>
			<g>
				<path class="st2" d="M759.32,313.78c-0.8,0-1.45,0.65-1.45,1.45c0,0.8,0.65,1.45,1.45,1.45c0.8,0,1.45-0.65,1.45-1.45
					C760.77,314.43,760.12,313.78,759.32,313.78z"/>
				<path class="st2" d="M752.86,315.64c-3.37,0-6.11,2.74-6.11,6.11c0,3.37,2.74,6.11,6.11,6.11c3.37,0,6.11-2.74,6.11-6.11
					C758.96,318.38,756.22,315.64,752.86,315.64z M752.86,325.66c-2.16,0-3.91-1.76-3.91-3.91s1.76-3.91,3.91-3.91
					c2.16,0,3.91,1.76,3.91,3.91S755.01,325.66,752.86,325.66z"/>
				<path class="st2" d="M757.7,334.15h-9.9c-4.11,0-7.45-3.34-7.45-7.45v-9.9c0-4.11,3.34-7.45,7.45-7.45h9.9
					c4.11,0,7.45,3.34,7.45,7.45v9.9C765.16,330.81,761.81,334.15,757.7,334.15z M747.8,311.68c-2.82,0-5.12,2.3-5.12,5.12v9.9
					c0,2.82,2.3,5.12,5.12,5.12h9.9c2.82,0,5.12-2.3,5.12-5.12v-9.9c0-2.82-2.3-5.12-5.12-5.12H747.8z"/>
			</g>
		</g>
	</g>
	<g>
		
			<radialGradient id="SVGID_00000033338841907788752440000013234369182780063902_" cx="575.5837" cy="335.1588" r="29.6844" gradientUnits="userSpaceOnUse">
			<stop  offset="0" style="stop-color:#000057"/>
			<stop  offset="0.2482" style="stop-color:#4C4C89;stop-opacity:0.7518"/>
			<stop  offset="0.5193" style="stop-color:#9898BB;stop-opacity:0.4807"/>
			<stop  offset="0.744" style="stop-color:#D0D0E0;stop-opacity:0.256"/>
			<stop  offset="0.9103" style="stop-color:#F2F2F6;stop-opacity:0.0897"/>
			<stop  offset="1" style="stop-color:#FFFFFF;stop-opacity:0"/>
		</radialGradient>
		
			<circle style="opacity:0.8;fill:url(#SVGID_00000033338841907788752440000013234369182780063902_);" cx="575.58" cy="335.16" r="29.68"/>
		<g>
			<circle cx="567.45" cy="321.75" r="23.83"/>
			<path class="st2" d="M570.09,336.93v-13.28h4.43l0.84-5.49h-5.27v-3.57c0-1.5,0.74-2.97,3.1-2.97h2.4v-4.68
				c0,0-2.17-0.37-4.25-0.37c-4.34,0-7.18,2.63-7.18,7.39v4.19h-4.83v5.49h4.83v13.28H570.09z"/>
		</g>
	</g>
	<g>
		
			<radialGradient id="SVGID_00000079466060890874611220000002768296732262713243_" cx="853.2993" cy="335.1588" r="29.6844" gradientUnits="userSpaceOnUse">
			<stop  offset="0" style="stop-color:#000057"/>
			<stop  offset="0.2482" style="stop-color:#4C4C89;stop-opacity:0.7518"/>
			<stop  offset="0.5193" style="stop-color:#9898BB;stop-opacity:0.4807"/>
			<stop  offset="0.744" style="stop-color:#D0D0E0;stop-opacity:0.256"/>
			<stop  offset="0.9103" style="stop-color:#F2F2F6;stop-opacity:0.0897"/>
			<stop  offset="1" style="stop-color:#FFFFFF;stop-opacity:0"/>
		</radialGradient>
		
			<circle style="opacity:0.8;fill:url(#SVGID_00000079466060890874611220000002768296732262713243_);" cx="853.3" cy="335.16" r="29.68"/>
		<g>
			<circle cx="845.4" cy="321.75" r="23.83"/>
			<path class="st2" d="M855.69,319.2L855.69,319.2c-0.22,0.02-0.44,0.03-0.66,0.03c-2.41,0-4.67-1.22-5.99-3.24v11.02
				c0,4.5-3.65,8.15-8.15,8.15c-4.5,0-8.15-3.65-8.15-8.15c0-4.5,3.65-8.15,8.15-8.15c0.17,0,0.34,0.02,0.5,0.03v4.01
				c-0.17-0.02-0.33-0.05-0.5-0.05c-2.3,0-4.16,1.86-4.16,4.16c0,2.3,1.86,4.16,4.16,4.16c2.3,0,4.32-1.81,4.32-4.11l0.04-18.72
				h3.84c0.36,3.44,3.14,6.13,6.59,6.39V319.2z"/>
		</g>
	</g>
	<g>
		
			<radialGradient id="SVGID_00000002383016781338168870000013696471582006337946_" cx="668.1555" cy="335.1588" r="29.6844" gradientUnits="userSpaceOnUse">
			<stop  offset="0" style="stop-color:#000057"/>
			<stop  offset="0.2482" style="stop-color:#4C4C89;stop-opacity:0.7518"/>
			<stop  offset="0.5193" style="stop-color:#9898BB;stop-opacity:0.4807"/>
			<stop  offset="0.744" style="stop-color:#D0D0E0;stop-opacity:0.256"/>
			<stop  offset="0.9103" style="stop-color:#F2F2F6;stop-opacity:0.0897"/>
			<stop  offset="1" style="stop-color:#FFFFFF;stop-opacity:0"/>
		</radialGradient>
		
			<circle style="opacity:0.8;fill:url(#SVGID_00000002383016781338168870000013696471582006337946_);" cx="668.16" cy="335.16" r="29.68"/>
		<g>
			<circle cx="660.1" cy="321.75" r="23.83"/>
			<path class="st2" d="M662.12,320.08l7.9-9.19h-1.87l-6.86,7.98l-5.48-7.98h-6.32l8.29,12.06l-8.29,9.63h1.87l7.25-8.42l5.79,8.42
				h6.32L662.12,320.08L662.12,320.08z M659.56,323.06l-0.84-1.2l-6.68-9.56h2.88l5.39,7.71l0.84,1.2l7.01,10.03h-2.88
				L659.56,323.06L659.56,323.06z"/>
		</g>
	</g>
	<g>
		
			<radialGradient id="SVGID_00000072277298182223191250000012152498577269350300_" cx="945.8712" cy="335.1588" r="29.6844" gradientUnits="userSpaceOnUse">
			<stop  offset="0" style="stop-color:#000057"/>
			<stop  offset="0.2482" style="stop-color:#4C4C89;stop-opacity:0.7518"/>
			<stop  offset="0.5193" style="stop-color:#9898BB;stop-opacity:0.4807"/>
			<stop  offset="0.744" style="stop-color:#D0D0E0;stop-opacity:0.256"/>
			<stop  offset="0.9103" style="stop-color:#F2F2F6;stop-opacity:0.0897"/>
			<stop  offset="1" style="stop-color:#FFFFFF;stop-opacity:0"/>
		</radialGradient>
		
			<circle style="opacity:0.8;fill:url(#SVGID_00000072277298182223191250000012152498577269350300_);" cx="945.87" cy="335.16" r="29.68"/>
		<g>
			<circle cx="938.05" cy="321.75" r="23.83"/>
			<path class="st2" d="M948.5,312.2c-1.98-0.91-4.06-1.55-6.21-1.92c-0.27,0.48-0.58,1.12-0.79,1.63c-2.28-0.34-4.6-0.34-6.88,0
				c-0.24-0.56-0.52-1.1-0.82-1.63c-2.15,0.36-4.24,1.01-6.21,1.93c-3.92,5.84-4.98,11.54-4.45,17.16c2.3,1.71,4.88,3.01,7.62,3.84
				c0.62-0.84,1.16-1.72,1.63-2.65c-0.89-0.33-1.75-0.74-2.57-1.23c0.21-0.16,0.42-0.32,0.62-0.49c4.82,2.28,10.41,2.28,15.24,0
				c0.2,0.17,0.42,0.33,0.63,0.49c-0.82,0.49-1.68,0.9-2.57,1.23c0.47,0.92,1.02,1.81,1.63,2.64c2.74-0.83,5.32-2.13,7.62-3.84
				C953.59,322.86,951.9,317.21,948.5,312.2z M933.05,325.92c-1.49,0-2.7-1.36-2.7-3.03c0-1.67,1.19-3.04,2.7-3.04
				s2.72,1.36,2.71,3.03C935.74,324.55,934.56,325.92,933.05,325.92z M943.05,325.92c-1.49,0-2.7-1.36-2.7-3.03
				c0-1.67,1.19-3.04,2.7-3.04s2.72,1.36,2.7,3.03C945.74,324.55,944.56,325.92,943.05,325.92z"/>
		</g>
	</g>
	<g>
		
			<radialGradient id="SVGID_00000057130222320865131340000011383333206813518482_" cx="945.8712" cy="466.2717" r="29.6844" gradientUnits="userSpaceOnUse">
			<stop  offset="0" style="stop-color:#000057"/>
			<stop  offset="0.2482" style="stop-color:#4C4C89;stop-opacity:0.7518"/>
			<stop  offset="0.5193" style="stop-color:#9898BB;stop-opacity:0.4807"/>
			<stop  offset="0.744" style="stop-color:#D0D0E0;stop-opacity:0.256"/>
			<stop  offset="0.9103" style="stop-color:#F2F2F6;stop-opacity:0.0897"/>
			<stop  offset="1" style="stop-color:#FFFFFF;stop-opacity:0"/>
		</radialGradient>
		
			<circle style="opacity:0.8;fill:url(#SVGID_00000057130222320865131340000011383333206813518482_);" cx="945.87" cy="466.27" r="29.68"/>
		<g>
			<circle cx="938.05" cy="455.25" r="23.83"/>
			<path class="st2" d="M924.39,454.68c0,0,11.92-4.89,16.06-6.62c1.59-0.69,6.96-2.89,6.96-2.89s2.48-0.96,2.27,1.38
				c-0.07,0.96-0.62,4.34-1.17,7.99c-0.83,5.17-1.72,10.82-1.72,10.82s-0.14,1.59-1.31,1.86c-1.17,0.28-3.1-0.96-3.45-1.24
				c-0.28-0.21-5.17-3.31-6.96-4.82c-0.48-0.41-1.03-1.24,0.07-2.21c2.48-2.27,5.44-5.1,7.24-6.89c0.83-0.83,1.65-2.76-1.79-0.41
				c-4.89,3.38-9.72,6.55-9.72,6.55s-1.1,0.69-3.17,0.07c-2.07-0.62-4.48-1.45-4.48-1.45S921.57,455.79,924.39,454.68L924.39,454.68
				z"/>
		</g>
	</g>
</g>
</svg>
