<?xml version="1.0" encoding="utf-8"?>
<!-- Generator: Adobe Illustrator 27.0.0, SVG Export Plug-In . SVG Version: 6.00 Build 0)  -->
<svg version="1.1" id="Capa_1" xmlns="http://www.w3.org/2000/svg" xmlns:xlink="http://www.w3.org/1999/xlink" x="0px" y="0px"
	 viewBox="0 0 1920 1080" style="enable-background:new 0 0 1920 1080;" xml:space="preserve">
<style type="text/css">
	.st0{fill:#DE3D96;}
	.st1{fill:url(#SVGID_1_);}
	.st2{fill:url(#SVGID_00000036223657473813600160000008854266632410915509_);}
	.st3{fill:url(#SVGID_00000139274391001464198020000015877986379453513397_);}
	.st4{fill:url(#SVGID_00000022553359073103459780000005277842194530755492_);}
	.st5{fill:url(#SVGID_00000128478999663976758730000001680711585921417910_);}
	.st6{fill:url(#SVGID_00000141446261421533469940000009658642480845541520_);}
</style>
<path class="st0" d="M36.57,328.42c-9.58-16.07-6.66-36.78,7.25-49.29c3.97-3.58,8.63-6.68,13.85-9.37
	c18.39-9.47,36.25-4.57,51.59,6.61c10.4,7.58,188.82,263.98,218.54,306.16c16.71,23.71,21.13,25.54,44.79,8.94
	c25.1-17.61,261.97-238.84,275.69-250.89c11.92-10.46,24.55-10.36,35.87-1.28c10.08,8.09,12.12,21.58,5.14,34.8
	c-2.39,4.53-198.24,296.89-260.83,387.67c-12.16,17.64-26.47,33.02-48.16,39.38c-15.81,4.64-31.45,3.75-43.79-6.85
	c-13.46-11.57-26.69-24.38-36.59-38.96C256.91,691.96,76.74,395.8,36.57,328.42z"/>
<g>
	<g>
		<linearGradient id="SVGID_1_" gradientUnits="userSpaceOnUse" x1="719.4882" y1="541.2005" x2="1148.8518" y2="541.2005">
			<stop  offset="0" style="stop-color:#DE3D96"/>
			<stop  offset="0.5525" style="stop-color:#F262A3;stop-opacity:0.4475"/>
			<stop  offset="1" style="stop-color:#FF7BAC;stop-opacity:0"/>
		</linearGradient>
		<path class="st1" d="M820.26,573.06c-12.45,0.01-13.17,1-9.54,13.3c14.81,50.2,49.73,79.06,98.77,93.04
			c97.44,33.84,149-74.55,198.05-11.65c15.14,18.75,0.63,42.17-17.2,53.12c-71.79,48.92-149.34,61.9-231.48,32.13
			c-278.15-112.68-99.51-558.2,181.95-409.31c70.88,40.34,118.25,117.08,106.16,199.42c-3.55,20.45-17.23,30.71-38.01,30.77
			c-48.12,0.14-96.23,0.05-144.35,0.05C964.61,573.63,868.37,573.04,820.26,573.06z M807.67,495.61
			c81.67,0.27,161.87,0.91,243.37,1.42c12.22,0.09,13.41-0.79,8.7-12.32C1013.74,362.17,845.67,371.9,807.67,495.61z"/>
		
			<linearGradient id="SVGID_00000041979083793311186520000012588273375035682466_" gradientUnits="userSpaceOnUse" x1="1398.2371" y1="624.0677" x2="1849" y2="624.0677">
			<stop  offset="0" style="stop-color:#DE3D96"/>
			<stop  offset="0.5525" style="stop-color:#F262A3;stop-opacity:0.4475"/>
			<stop  offset="1" style="stop-color:#FF7BAC;stop-opacity:0"/>
		</linearGradient>
		<path style="fill:url(#SVGID_00000041979083793311186520000012588273375035682466_);" d="M1631.8,604.72
			c43.18-82.76,83.31-165.43,126.11-248.18c12.58-28.4,47.74-49.18,74.6-25.81c16.47,13.41,21.23,33.27,11.43,52.68
			C1769,526.45,1697,671.05,1623.58,814.9c-29.13,49.72-54.9,156.01-126.8,93.41c-6.63-7.28-8.85-14.67-4.44-23.57
			c29.51-59.76,59.51-119.29,89.95-178.59c2.85-5.53,2.23-8.68-2.28-13.15c-58.56-90.63-107.76-187.93-162.82-280.96
			c-59.18-81.87,35.76-124.7,72.92-59.81C1537.66,436.31,1582.29,521.86,1631.8,604.72z"/>
		
			<linearGradient id="SVGID_00000168808382050154186780000000033774860661004428_" gradientUnits="userSpaceOnUse" x1="1223.6594" y1="445.6839" x2="1319.5906" y2="445.6839">
			<stop  offset="0" style="stop-color:#DE3D96"/>
			<stop  offset="0.5525" style="stop-color:#F262A3;stop-opacity:0.4475"/>
			<stop  offset="1" style="stop-color:#FF7BAC;stop-opacity:0"/>
		</linearGradient>
		<path style="fill:url(#SVGID_00000168808382050154186780000000033774860661004428_);" d="M1319.22,723.32
			c0.01,30.88-28.48,51.4-58.14,41.74c-24.94-8.12-36.39-24.47-36.58-53.3c-0.97-181.03-0.5-362.06-0.71-543.09
			c-3.69-50.87,73.09-60.63,89.87-17.71C1321.8,248.82,1319.18,631.37,1319.22,723.32z"/>
	</g>
	<g>
		
			<linearGradient id="SVGID_00000155827830354914134660000005308733443240172951_" gradientUnits="userSpaceOnUse" x1="719.4882" y1="525.7039" x2="1849" y2="525.7039">
			<stop  offset="0" style="stop-color:#5256F7"/>
			<stop  offset="0.0256" style="stop-color:#5A55F2"/>
			<stop  offset="0.1987" style="stop-color:#894CD1"/>
			<stop  offset="0.3637" style="stop-color:#AE46B7"/>
			<stop  offset="0.5165" style="stop-color:#C841A5"/>
			<stop  offset="0.6525" style="stop-color:#D83E9A"/>
			<stop  offset="0.7579" style="stop-color:#DE3D96"/>
			<stop  offset="0.9944" style="stop-color:#DE3DE1"/>
		</linearGradient>
		<path style="fill:url(#SVGID_00000155827830354914134660000005308733443240172951_);" d="M820.26,573.06
			c-12.45,0.01-13.17,1-9.54,13.3c14.81,50.2,49.73,79.06,98.77,93.04c97.44,33.84,149-74.55,198.05-11.65
			c15.14,18.75,0.63,42.17-17.2,53.12c-71.79,48.92-149.34,61.9-231.48,32.13c-278.15-112.68-99.51-558.2,181.95-409.31
			c70.88,40.34,118.25,117.08,106.16,199.42c-3.55,20.45-17.23,30.71-38.01,30.77c-48.12,0.14-96.23,0.05-144.35,0.05
			C964.61,573.63,868.37,573.04,820.26,573.06z M807.67,495.61c81.67,0.27,161.87,0.91,243.37,1.42c12.22,0.09,13.41-0.79,8.7-12.32
			C1013.74,362.17,845.67,371.9,807.67,495.61z"/>
		
			<linearGradient id="SVGID_00000106135216052478359700000004457294350939085198_" gradientUnits="userSpaceOnUse" x1="719.4882" y1="525.7039" x2="1849" y2="525.7039">
			<stop  offset="0" style="stop-color:#5256F7"/>
			<stop  offset="0.0256" style="stop-color:#5A55F2"/>
			<stop  offset="0.1987" style="stop-color:#894CD1"/>
			<stop  offset="0.3637" style="stop-color:#AE46B7"/>
			<stop  offset="0.5165" style="stop-color:#C841A5"/>
			<stop  offset="0.6525" style="stop-color:#D83E9A"/>
			<stop  offset="0.7579" style="stop-color:#DE3D96"/>
			<stop  offset="0.9944" style="stop-color:#DE3DE1"/>
		</linearGradient>
		<path style="fill:url(#SVGID_00000106135216052478359700000004457294350939085198_);" d="M1631.8,604.72
			c43.18-82.76,83.31-165.43,126.11-248.18c12.58-28.4,47.74-49.18,74.6-25.81c16.47,13.41,21.23,33.27,11.43,52.68
			C1769,526.45,1697,671.05,1623.58,814.9c-29.13,49.72-54.9,156.01-126.8,93.41c-6.63-7.28-8.85-14.67-4.44-23.57
			c29.51-59.76,59.51-119.29,89.95-178.59c2.85-5.53,2.23-8.68-2.28-13.15c-58.56-90.63-107.76-187.93-162.82-280.96
			c-59.18-81.87,35.76-124.7,72.92-59.81C1537.66,436.31,1582.29,521.86,1631.8,604.72z"/>
		
			<linearGradient id="SVGID_00000108267376888915622730000008991675332209444502_" gradientUnits="userSpaceOnUse" x1="719.4882" y1="525.7039" x2="1849" y2="525.7039">
			<stop  offset="0" style="stop-color:#5256F7"/>
			<stop  offset="0.0256" style="stop-color:#5A55F2"/>
			<stop  offset="0.1987" style="stop-color:#894CD1"/>
			<stop  offset="0.3637" style="stop-color:#AE46B7"/>
			<stop  offset="0.5165" style="stop-color:#C841A5"/>
			<stop  offset="0.6525" style="stop-color:#D83E9A"/>
			<stop  offset="0.7579" style="stop-color:#DE3D96"/>
			<stop  offset="0.9944" style="stop-color:#DE3DE1"/>
		</linearGradient>
		<path style="fill:url(#SVGID_00000108267376888915622730000008991675332209444502_);" d="M1319.22,723.32
			c0.01,30.88-28.48,51.4-58.14,41.74c-24.94-8.12-36.39-24.47-36.58-53.3c-0.97-181.03-0.5-362.06-0.71-543.09
			c-3.69-50.87,73.09-60.63,89.87-17.71C1321.8,248.82,1319.18,631.37,1319.22,723.32z"/>
	</g>
</g>
<path class="st0" d="M356.57,559.04c-1.12-3.84-2.06-5.59-2.07-7.34c-0.65-76.97,5.65-153.08,32.79-225.86
	c10.59-28.4,28.43-52.45,55.48-67.94c23.63-13.53,48.13-16.1,71.81-0.55c24.39,16.01,32.89,40.06,30.44,68.24
	c-2.19,25.19-11.12,48.54-26.66,68.05c-23.09,28.99-123.16,131.48-148.59,154.91C366.09,551.92,361.95,554.79,356.57,559.04z"/>
</svg>
